<?xml version="1.0" encoding="UTF-8" standalone="no"?>
<!-- Created with Inkscape (http://www.inkscape.org/) -->

<svg
   xmlns:dc="http://purl.org/dc/elements/1.1/"
   xmlns:cc="http://creativecommons.org/ns#"
   xmlns:rdf="http://www.w3.org/1999/02/22-rdf-syntax-ns#"
   xmlns:svg="http://www.w3.org/2000/svg"
   xmlns="http://www.w3.org/2000/svg"
   xmlns:sodipodi="http://sodipodi.sourceforge.net/DTD/sodipodi-0.dtd"
   xmlns:inkscape="http://www.inkscape.org/namespaces/inkscape"
   id="svg3055"
   version="1.1"
   inkscape:version="0.48.4 r9939"
   width="186.44504"
   height="186.41574"
   sodipodi:docname="seal.jpg.svg">
  <metadata
     id="metadata3061">
    <rdf:RDF>
      <cc:Work
         rdf:about="">
        <dc:format>image/svg+xml</dc:format>
        <dc:type
           rdf:resource="http://purl.org/dc/dcmitype/StillImage" />
        <dc:title></dc:title>
      </cc:Work>
    </rdf:RDF>
  </metadata>
  <defs
     id="defs3059" />
  <sodipodi:namedview
     pagecolor="#ffffff"
     bordercolor="#666666"
     borderopacity="1"
     objecttolerance="10"
     gridtolerance="10"
     guidetolerance="10"
     inkscape:pageopacity="0"
     inkscape:pageshadow="2"
     inkscape:window-width="1276"
     inkscape:window-height="761"
     id="namedview3057"
     showgrid="false"
     fit-margin-top="0"
     fit-margin-left="0"
     fit-margin-right="0"
     fit-margin-bottom="0"
     inkscape:zoom="1"
     inkscape:cx="171.19529"
     inkscape:cy="71.615693"
     inkscape:window-x="0"
     inkscape:window-y="18"
     inkscape:window-maximized="0"
     inkscape:current-layer="svg3055" />
  <path
     style="fill:#004795;fill-opacity:1"
     d="m 88.408326,186.34455 c -22.65484,-1.13233 -44.16958,-10.57546 -60.35548,-26.4909 -5.24672,-5.15907 -9.2395,-10.01141 -13.00233,-15.80145 C 2.4523759,124.66676 -2.4548541,101.5311 1.1559859,78.544828 c 2.75023,-17.50763 10.3294501,-33.53993 22.3087101,-47.18949 1.74292,-1.98595 6.88766,-7.05287 8.98209,-8.84624 13.27087,-11.36324 29.38611,-18.7975096 46.40747,-21.4086596 25.450864,-3.90428 51.052444,2.66871 71.332794,18.3140896 6.21333,4.79332 13.09655,11.76399 17.60196,17.82562 8.39695,11.29733 14.0971,23.90982 16.74514,37.05114 4.76781,23.66101 0.5499,47.643242 -11.94015,67.889642 -3.94377,6.39284 -7.83893,11.27314 -13.56631,16.99744 -7.19111,7.18723 -14.23984,12.3623 -23.01094,16.89426 -11.12163,5.74645 -22.77201,9.06289 -35.53061,10.11429 -2.620594,0.21596 -9.194234,0.30174 -12.077814,0.15763 z m 12.751464,-1.71856 c 11.22985,-1.04821 21.08374,-3.69748 31.06308,-8.35145 1.31737,-0.61437 2.95919,-1.42969 3.64847,-1.81182 0.68929,-0.38212 1.27756,-0.69477 1.30726,-0.69477 0.0297,0 1.03235,-0.57327 2.22814,-1.27392 4.11351,-2.4103 7.22705,-4.54385 10.93001,-7.48974 6.8617,-5.45885 13.51113,-12.55789 18.3631,-19.60477 4.89285,-7.10625 8.95706,-15.24636 11.58519,-23.20374 4.48727,-13.58644 5.75566,-27.945042 3.72256,-42.140982 -3.73064,-26.04898 -18.53174,-49.15879 -40.85652,-63.79167 -6.76322,-4.43298 -15.31737,-8.4264696 -23.03581,-10.7541996 -9.28307,-2.7996 -17.29469,-3.97338 -27.039364,-3.96154 -5.39015,0.007 -8.17895,0.19985 -13.00656,0.90149 -24.00305,3.48857 -45.21405,16.0385696 -60.0665,35.5397796 -4.84025,6.3552 -9.11427,13.94236 -12.0592601,21.40732 -3.30442,8.37607 -5.21765,16.47438 -6.13617,25.97322 -0.31801,3.28873 -0.358,11.96707 -0.069,14.970152 0.59353,6.16685 1.28031,10.34688 2.5031,15.23471 3.94727,15.77844 11.9569901,30.03405 23.5602201,41.93216 1.67495,1.71751 4.87831,4.69807 6.45624,6.00718 12.09171,10.0318 25.82835,16.63224 40.92856,19.66615 3.8676,0.77706 7.96314,1.30674 12.87433,1.66501 2.52074,0.1839 10.15128,0.0566 13.098894,-0.21857 z m -7.934184,-4.09518 c 0,-0.0886 0.10875,-0.22198 0.24169,-0.29638 0.21196,-0.1186 0.23478,-0.46928 0.18534,-2.85015 -0.0543,-2.61613 -0.0687,-2.72349 -0.39392,-2.95129 -0.18564,-0.13003 -0.29874,-0.29918 -0.25133,-0.37588 0.0474,-0.0767 1.02867,-0.13945 2.18061,-0.13945 2.70289,0 3.27716,0.26153 3.27716,1.49243 0,0.60463 -0.35111,1.12528 -0.91688,1.35963 l -0.45319,0.18771 0.5603,0.19263 c 0.8553,0.29402 1.27538,0.79478 1.28555,1.53242 0.0104,0.74519 -0.3051,1.27572 -0.96372,1.62111 -0.58582,0.30721 -4.75161,0.50643 -4.75161,0.22722 z m 3.0777,-0.46292 c 1.11207,-0.045 1.39549,-1.94988 0.36907,-2.48066 -0.24082,-0.12454 -0.6838,-0.22644 -0.98439,-0.22644 l -0.54653,0 0.0824,0.93564 c 0.0453,0.5146 0.0858,1.14331 0.09,1.39715 0.006,0.38804 0.0612,0.45555 0.34439,0.42414 0.18525,-0.0205 0.47553,-0.043 0.64505,-0.0498 z m 0.17048,-3.53609 c 0.27057,-0.17729 0.34416,-0.36184 0.34237,-0.85861 -0.002,-0.34803 -0.0518,-0.70689 -0.11228,-0.79749 -0.17533,-0.26257 -0.73107,-0.50894 -1.14806,-0.50894 -0.38264,0 -0.38409,0.005 -0.38409,1.29118 l 0,1.29117 0.4787,-0.0957 c 0.26329,-0.0527 0.63381,-0.19737 0.82336,-0.32158 z m 7.530334,3.36698 c 0,-0.10672 0.0976,-0.30185 0.21681,-0.43362 0.18987,-0.20979 0.17121,-0.52762 -0.15004,-2.55671 -0.47454,-2.99731 -0.45918,-2.94105 -0.82941,-3.03786 -0.17425,-0.0456 -0.28759,-0.17054 -0.25187,-0.27769 0.0865,-0.25956 3.91721,-0.87816 4.46504,-0.72103 0.92921,0.2665 1.33992,0.79685 1.33992,1.7303 0,0.47496 -0.68071,1.23383 -1.24745,1.39072 l -0.47412,0.13125 0.39208,0.15807 c 0.21565,0.0869 0.80836,0.66132 1.31715,1.27641 0.50879,0.61511 1.07044,1.15638 1.24811,1.20284 0.50002,0.13076 0.1828,0.30516 -0.88166,0.48473 l -0.97118,0.16385 -0.80051,-1.06206 c -0.90857,-1.20538 -1.52967,-1.83238 -1.67308,-1.68897 -0.0538,0.0538 -0.0189,0.58736 0.0777,1.18572 0.12589,0.78055 0.2591,1.14595 0.47146,1.29332 0.5088,0.35304 0.34704,0.57075 -0.49784,0.67005 -0.43661,0.0513 -1.00921,0.13637 -1.27246,0.18902 -0.34144,0.0683 -0.47863,0.0401 -0.47863,-0.0983 z m 2.65482,-4.12955 c 0.61501,-0.38366 0.62903,-1.41205 0.0275,-2.01361 -0.21964,-0.21964 -0.4577,-0.29137 -0.85698,-0.25817 -0.53994,0.0449 -0.55256,0.0599 -0.54038,0.64476 0.007,0.32934 0.0615,0.91903 0.12153,1.31041 0.10394,0.67821 0.12795,0.70725 0.51148,0.61843 0.22134,-0.0512 0.55294,-0.18708 0.73688,-0.30182 z m -28.739494,3.55718 c -0.3249,-0.16564 -0.71401,-0.24836 -0.95322,-0.20264 -0.40372,0.0772 -0.40408,0.0764 -0.30599,-0.6392 0.054,-0.39406 0.0982,-0.8081 0.0982,-0.92012 0,-0.45389 0.45686,-0.15975 0.78816,0.50742 0.2831,0.57011 0.47189,0.75279 0.95224,0.92143 0.77844,0.27329 1.33802,0.12565 1.62465,-0.42865 0.34228,-0.66188 0.0968,-1.06953 -1.17255,-1.94702 -1.26885,-0.87716 -1.68191,-1.5091 -1.52682,-2.33587 0.27621,-1.4723 2.22402,-2.20079 3.40358,-1.27296 0.23971,0.18855 0.49624,0.2543 0.78034,0.19999 0.36049,-0.0689 0.4116,-0.039 0.34481,0.20171 -0.0432,0.15543 -0.12182,0.53943 -0.17487,0.85331 -0.12683,0.75038 -0.53083,0.69442 -0.79441,-0.11002 -0.22117,-0.67505 -0.55142,-0.97316 -1.08552,-0.97988 -0.79127,-0.01 -1.29053,0.72105 -0.9066,1.32743 0.0729,0.1152 0.58827,0.48571 1.14517,0.82336 0.55692,0.33766 1.13917,0.78558 1.29392,0.99535 0.70127,0.95076 0.23166,2.45614 -0.95955,3.07593 -0.57986,0.30171 -1.89357,0.26589 -2.55154,-0.0696 z m -7.3362,-1.64155 c -1.27305,-0.36865 -1.67635,-0.7003 -0.97306,-0.80018 0.18526,-0.0263 0.33009,-0.13205 0.32186,-0.23497 -0.008,-0.10292 -0.0251,-0.41247 -0.0374,-0.68789 -0.0219,-0.48716 -0.052,-0.50969 -1.10779,-0.82889 l -1.08534,-0.3281 -0.41168,0.45698 c -0.46598,0.51726 -0.51138,0.7228 -0.18713,0.84724 0.25803,0.099 0.30659,0.50323 0.0605,0.50323 -0.0902,0 -0.52457,-0.10479 -0.96517,-0.23287 -0.58343,-0.16961 -0.77854,-0.29163 -0.7181,-0.44911 0.0456,-0.11892 0.19728,-0.21622 0.33698,-0.21622 0.30405,0 0.89142,-0.60578 1.95956,-2.02098 0.43501,-0.57635 1.02268,-1.33107 1.30595,-1.67715 0.36456,-0.44545 0.48707,-0.71728 0.41934,-0.93065 -0.074,-0.23318 -0.0175,-0.31735 0.24967,-0.37184 0.18993,-0.0388 0.52745,-0.10885 0.75002,-0.1558 0.36454,-0.0769 0.41231,-0.0369 0.48141,0.4023 0.0659,0.41864 0.54156,5.84216 0.53751,6.12816 -0.002,0.0559 0.10453,0.20755 0.23404,0.33707 0.12952,0.12951 0.21373,0.32626 0.18712,0.43724 -0.0382,0.15958 -0.32214,0.12247 -1.35824,-0.17757 z m -0.83355,-3.80463 c -0.11238,-1.57585 -0.16674,-1.6069 -0.98656,-0.56339 -0.39627,0.50438 -0.69112,0.94639 -0.65525,0.98225 0.11181,0.11182 1.22827,0.49513 1.47443,0.50622 0.19524,0.009 0.22302,-0.14479 0.16738,-0.92508 z m 45.998874,3.42898 c -0.74048,-0.3374 -0.78124,-0.42744 -1.86026,-4.10954 -0.2543,-0.86773 -0.39528,-1.12081 -0.68594,-1.23132 -0.20122,-0.0765 -0.36586,-0.19756 -0.36586,-0.26903 0,-0.17493 2.36177,-0.81405 2.55862,-0.69239 0.0993,0.0614 0.066,0.19499 -0.0921,0.36975 -0.23177,0.25611 -0.20809,0.40607 0.37013,2.34294 0.81589,2.73293 1.13646,3.17286 2.17067,2.97883 0.75955,-0.14248 1.28017,-0.68193 1.28017,-1.32648 0,-0.41521 -1.10966,-4.46842 -1.23486,-4.51055 -0.27471,-0.0924 -0.57863,-0.34448 -0.55675,-0.46175 0.0325,-0.17428 1.33349,-0.58288 1.45835,-0.45801 0.0463,0.0463 -0.002,0.24451 -0.10643,0.44044 -0.16573,0.30964 -0.1103,0.63018 0.42393,2.45172 0.69907,2.38366 0.73288,2.75922 0.31061,3.45182 -0.55336,0.90762 -2.64471,1.49086 -3.67026,1.02357 z m 9.2906,-2.78954 c -0.0498,-0.0806 0.0474,-0.3332 0.21594,-0.56139 0.25861,-0.35006 0.75514,-2.29802 0.75514,-2.96247 0,-0.26202 -2.49744,-2.00822 -3.03146,-2.11958 -0.69455,-0.14485 -0.46467,-0.42109 0.77697,-0.93373 1.18928,-0.49102 1.70937,-0.51319 1.33053,-0.0567 -0.15895,0.19151 -0.12382,0.28169 0.21499,0.55184 0.22274,0.1776 0.59958,0.43787 0.83743,0.57837 l 0.43247,0.25546 0.17649,-0.89708 c 0.1933,-0.98258 0.14083,-1.19328 -0.29715,-1.19328 -0.52855,0 -0.30242,-0.27203 0.55087,-0.66269 0.46281,-0.21187 0.90068,-0.38523 0.97306,-0.38523 0.22771,0 0.14288,0.42792 -0.11323,0.57125 -0.26258,0.14696 -0.87351,2.86864 -0.68216,3.03904 0.41594,0.37044 2.99289,1.98659 3.29749,2.06805 0.20871,0.0558 0.39882,0.16519 0.42246,0.24303 0.0671,0.22126 -2.52812,1.28961 -2.70444,1.11329 -0.098,-0.098 -0.0874,-0.20933 0.0313,-0.32803 0.0988,-0.0988 0.17905,-0.25038 0.17834,-0.33683 -0.002,-0.14262 -1.62711,-1.27994 -1.82982,-1.27994 -0.0783,0 -0.32999,1.56664 -0.33671,2.09562 -0.002,0.1234 0.1261,0.22445 0.28367,0.22455 0.61062,0 0.38547,0.37897 -0.44341,0.74555 -0.98336,0.43488 -0.92122,0.42106 -1.03874,0.23091 z m -65.926364,-0.85734 c -1.11306,-0.48429 -1.22368,-0.56698 -0.98844,-0.739 0.14569,-0.10654 0.31947,-0.15996 0.38615,-0.11875 0.15614,0.0965 0.35782,-0.3022 1.4802,-2.92617 0.86252,-2.01648 0.90614,-2.17242 0.65839,-2.35359 -0.39115,-0.28601 -1.0219,-0.23607 -1.3309,0.10537 -0.25019,0.27645 -0.67365,0.41153 -0.67365,0.21488 0,-0.0465 0.14202,-0.41466 0.3156,-0.81815 l 0.31558,-0.73361 0.62005,0.31674 c 1.10951,0.56678 4.04469,1.76865 4.31939,1.76865 0.3396,0 0.33583,0.11572 -0.0317,0.97312 -0.34139,0.79641 -0.67363,0.8303 -0.67363,0.0687 0,-0.4049 -0.0997,-0.57 -0.51333,-0.85015 -0.28234,-0.19122 -0.55869,-0.29572 -0.61412,-0.23225 -0.18698,0.2141 -2.09114,4.7935 -2.09114,5.02906 0,0.12836 0.0674,0.27503 0.1497,0.32591 0.17361,0.1073 0.20381,0.52624 0.0374,0.51924 -0.0617,-0.002 -0.67628,-0.2501 -1.36559,-0.55001 z m -8.0651,-3.97073 c -0.74767,-0.43096 -1.03667,-0.67345 -0.92989,-0.78023 0.0852,-0.0852 0.26279,-0.15573 0.39459,-0.15668 0.15232,-0.002 0.72768,-0.86333 1.57894,-2.36617 1.08471,-1.91497 1.30522,-2.40549 1.16003,-2.58045 -0.0986,-0.1188 -0.14208,-0.31294 -0.0966,-0.43141 0.0648,-0.16894 0.32551,-0.0806 1.20881,0.40978 1.12517,0.62463 1.31791,0.88339 0.72339,0.97116 -0.23384,0.0345 -0.64776,0.63976 -1.59805,2.33672 -1.09237,1.95067 -1.26853,2.3598 -1.18844,2.7603 0.0517,0.25861 0.0351,0.46842 -0.0369,0.46623 -0.072,-0.002 -0.61916,-0.28536 -1.21581,-0.62925 z m 84.018764,-0.26173 c 0.0833,-0.37922 -0.0864,-0.75224 -1.13581,-2.49623 -0.67856,-1.1277 -1.23374,-2.12589 -1.23374,-2.21818 0,-0.0923 -0.17106,-0.18198 -0.38012,-0.19929 -0.57406,-0.0475 -0.69943,-0.26964 -0.29707,-0.52632 0.90163,-0.57516 3.92497,-2.34263 3.951,-2.30977 0.0161,0.0203 0.20847,0.32464 0.42754,0.67634 0.34196,0.549 0.36482,0.65228 0.16164,0.73024 -0.13015,0.0499 -0.45543,-0.027 -0.72285,-0.17104 -0.46972,-0.25294 -0.50623,-0.25125 -1.07713,0.05 -1.09878,0.57963 -1.07817,0.49001 -0.38234,1.66123 l 0.63266,1.06493 0.43052,-0.30655 c 0.24963,-0.17776 0.45031,-0.4733 0.47758,-0.70336 0.0259,-0.21824 0.11442,-0.41777 0.19675,-0.44342 0.14806,-0.0461 0.97306,1.3066 0.97306,1.59548 0,0.20307 -0.39047,0.18878 -0.73585,-0.0269 -0.2271,-0.14182 -0.36122,-0.12509 -0.68209,0.0852 -0.36485,0.23906 -0.38133,0.28994 -0.19043,0.58822 0.11492,0.17959 0.4338,0.70598 0.7086,1.16977 l 0.49965,0.84325 0.8363,-0.53098 c 1.02865,-0.6531 1.07239,-0.71456 1.02452,-1.43975 -0.0213,-0.32241 0.0349,-0.60931 0.12554,-0.64102 0.16268,-0.0569 0.95869,1.01145 0.95869,1.28672 0,0.16188 -4.22257,2.70741 -4.49109,2.70741 -0.11455,0 -0.1402,-0.15139 -0.0755,-0.44585 z m -46.855864,-0.7708 c -21.83297,-1.41636 -42.1101,-12.51545 -55.29301,-30.26572 -4.52859,-6.09758 -8.36592,-13.49533 -10.84802,-20.91317 -3.36407,-10.0537 -4.56069,-21.708892 -3.31213,-32.260682 3.02069,-25.52834 18.5298,-47.42707 41.60867,-58.75109 8.3095,-4.07718 16.82679,-6.41073 26.79658,-7.34164 2.24913,-0.21002 10.45616,-0.16003 13.024034,0.0793 9.21107,0.85855 17.86407,3.31551 26.34747,7.48119 6.97828,3.42661 13.92301,8.4027 19.53312,13.99601 1.83862,1.83313 2.5866,2.64844 4.84174,5.2776 0.39709,0.46297 1.30653,1.61595 2.02097,2.56219 8.12378,10.75967 13.1006,23.0124 14.69256,36.17246 1.50015,12.40102 -0.0949,25.108922 -4.58305,36.513052 -4.46169,11.33694 -11.68117,21.50454 -20.93637,29.48591 -1.65494,1.42715 -5.07251,4.06723 -6.13777,4.74141 -0.24701,0.15633 -0.68488,0.46614 -0.97306,0.68846 -1.19725,0.92367 -5.36937,3.33433 -8.39866,4.85274 -8.77115,4.39651 -18.4832,7.02154 -28.427924,7.68366 -2.3216,0.15458 -7.55997,0.15368 -9.95515,-0.002 z m 7.78448,-1.33212 c 3.30315,-0.15113 6.104194,-0.41804 8.757544,-0.8345 9.66826,-1.51752 19.13473,-5.07402 27.54509,-10.34857 12.25625,-7.68652 22.36485,-19.32623 28.11737,-32.37624 3.11364,-7.06351 5.0324,-14.21352 5.96579,-22.23068 0.33105,-2.843592 0.37925,-11.899962 0.0781,-14.670752 -0.60054,-5.5249 -1.65867,-10.64523 -3.2019,-15.4941 -0.57552,-1.8083 -1.89667,-5.31042 -2.50042,-6.62805 -0.2556,-0.55783 -0.46472,-1.04943 -0.46472,-1.09244 0,-0.17104 -2.55945,-5.17064 -3.36647,-6.57601 -5.51712,-9.60773 -13.82712,-18.3984 -23.31635,-24.66497 -10.40186,-6.86925 -22.47305,-10.97457 -35.070654,-11.92724 -2.68722,-0.20321 -10.38644,-0.0829 -12.9476,0.20234 -14.57584,1.6233 -28.03277,7.26935 -39.0721,16.39324 -11.12899,9.198 -19.21168,21.18339 -23.48206,34.82031 -1.44465,4.61331 -2.45385,9.57664 -3.04324,14.96692 -0.25814,2.36088 -0.25928,11.31461 -0.002,13.872132 1.77945,17.67204 9.33519,33.44115 21.90317,45.71275 13.30528,12.99154 30.28081,20.21691 49.16009,20.92428 0.65868,0.0247 1.29866,0.0578 1.42216,0.0736 0.1235,0.0158 1.7066,-0.0391 3.51799,-0.122 z m -46.40748,-21.96604 c -0.93282,-0.22182 -1.67439,-1.30994 -1.48911,-2.185 0.30472,-1.43916 1.68314,-2.03178 3.03857,-1.30638 0.72176,0.38627 1.01949,1.88867 0.52413,2.64469 -0.38594,0.58902 -1.40583,1.00546 -2.07359,0.84669 z m 32.49977,-0.12173 c -2.30789,-0.84567 -3.78188,-3.7108 -3.01999,-5.87022 0.11723,-0.33225 0.18217,-0.63506 0.14433,-0.67291 -0.0378,-0.0378 -0.48399,0.0989 -0.99143,0.30385 -1.72901,0.69838 -3.77999,0.22539 -5.21403,-1.20243 -2.95945,-2.94664 -0.53346,-7.42596 3.10451,-5.73211 1.26465,0.58882 1.51805,1.30927 0.75408,2.14396 -0.49424,0.53999 -1.0574,0.43948 -1.88733,-0.33682 -0.80853,-0.75627 -1.09106,-0.82368 -1.42918,-0.34095 -0.61055,0.87169 0.0501,2.82509 1.17932,3.48685 1.42467,0.8349 2.72549,0.2758 3.81588,-1.64009 0.81604,-1.43382 1.05923,-2.33521 1.05923,-3.92594 0,-3.12198 -1.85384,-6.23398 -5.49098,-9.21758 -2.53548,-2.07988 -5.10925,-3.42358 -6.63059,-3.46165 l -0.81911,-0.0205 -0.90649,1.32267 c -0.49856,0.72747 -1.03093,1.39232 -1.18304,1.47744 -0.40297,0.22552 -2.74673,0.007 -4.38582,-0.40867 -4.83429,-1.22631 -8.28379,-4.44395 -9.64453,-8.99626 -0.43181,-1.44463 -0.54202,-4.35647 -0.22696,-5.99703 0.78528,-4.08902 2.88218,-7.313982 6.30833,-9.701992 3.30752,-2.30531 7.1506,-3.64949 11.28915,-3.94856 4.06993,-0.2941 7.74186,0.56376 10.11817,2.36389 1.54456,1.17006 3.51799,3.28295 3.51799,3.76661 0,0.14216 -0.4042,0.79379 -0.89821,1.448062 -0.49402,0.65428 -0.89821,1.32856 -0.89821,1.49843 0,0.83104 3.56354,2.7278 6.57338,3.49879 l 1.36081,0.34858 0,2.8092 c 0,2.30035 -0.0378,2.80921 -0.20837,2.80921 -0.61402,0 -3.53178,-0.69006 -5.03119,-1.18988 -4.85956,-1.61995 -8.53299,-4.26299 -8.53299,-6.13953 0,-0.62617 0.31186,-0.58982 1.23317,0.14373 0.41364,0.32935 0.87141,0.59881 1.01726,0.59881 0.28395,0 0.5939,-0.67888 0.5939,-1.30077 0,-1.09043 -2.34054,-3.698302 -4.04194,-4.503612 -4.02398,-1.90463 -10.22666,-0.69121 -13.63576,2.667542 -2.79466,2.7534 -3.55697,6.81308 -1.90916,10.16742 0.61551,1.25297 2.12531,2.75599 3.42619,3.4108 1.32954,0.66923 3.07504,1.08582 4.54533,1.08481 1.5017,-0.001 2.10124,-0.16229 2.82588,-0.76005 0.70722,-0.58337 0.59996,-0.74842 -0.71817,-1.10522 -0.53622,-0.14515 -1.00998,-0.32062 -1.05283,-0.38994 -0.0428,-0.0693 0.10671,-0.24688 0.33231,-0.39459 0.32801,-0.21473 0.71147,-0.26711 1.91347,-0.26134 1.2866,0.006 1.70183,0.0755 2.88095,0.48131 1.60612,0.55272 3.44854,1.45242 4.86247,2.37446 3.61174,2.35526 7.78713,8.0568 8.97603,12.25688 0.48154,1.70113 0.49096,4.35428 0.0208,5.83835 -0.36971,1.16684 -1.19997,2.65369 -1.92195,3.44192 -2.36682,2.58397 -2.69378,4.9984 -0.81901,6.0481 1.15105,0.64448 2.84843,0.39512 2.84843,-0.41845 0,-0.1311 -0.33683,-0.54804 -0.74851,-0.92651 -0.86671,-0.79682 -0.98517,-1.35851 -0.40204,-1.90635 0.76144,-0.71533 1.74859,-0.27048 2.35261,1.06018 0.96024,2.11543 -0.48322,4.15918 -2.92363,4.13945 -0.49402,-0.004 -1.16113,-0.10361 -1.48248,-0.22135 z m 19.093644,-0.088 c -0.74716,-0.36984 -1.467304,-1.27403 -1.606764,-2.01741 -0.20285,-1.08128 0.616454,-2.88072 1.446344,-3.17657 0.47735,-0.17017 1.24216,0.12044 1.47835,0.56175 0.25822,0.48251 0.029,1.03085 -0.678,1.62182 -0.74948,0.62649 -0.86836,0.8506 -0.65887,1.24206 0.33554,0.62694 2.1524,0.63697 2.99174,0.0165 1.02056,-0.75442 1.25306,-2.19788 0.58207,-3.61364 -0.21463,-0.45285 -0.87362,-1.41943 -1.46447,-2.14794 -1.88512,-2.32441 -2.42738,-3.77772 -2.41768,-6.47944 0.005,-1.32045 0.0846,-1.94182 0.38494,-2.99403 1.42028,-4.97641 6.09688,-10.87525 10.40665,-13.12648 3.4633,-1.80908 6.30279,-2.45686 7.92473,-1.80789 0.9352,0.3742 0.75929,0.6076 -0.71954,0.95472 -0.43858,0.10294 -0.83411,0.28276 -0.87895,0.39961 -0.12124,0.31594 0.3288,0.73091 1.19834,1.10498 0.69217,0.29776 0.94565,0.32428 2.42198,0.25337 2.54246,-0.12213 4.39258,-0.85932 6.0234,-2.40007 1.53027,-1.44574 2.25387,-3.04252 2.38778,-5.26901 0.16026,-2.665 -0.73371,-4.94128 -2.70449,-6.88627 -1.3861,-1.36797 -2.39829,-2.010712 -4.27901,-2.717132 -3.40002,-1.2771 -6.93764,-1.23826 -9.6,0.10539 -1.07929,0.54471 -2.35535,1.714862 -3.12194,2.862852 -0.48045,0.71947 -0.60485,1.04284 -0.60485,1.57221 0,0.78717 0.20955,1.24556 0.56939,1.24556 0.1427,0 0.589,-0.27232 0.99179,-0.60516 0.91413,-0.7554 1.22666,-0.7321 1.15987,0.0865 -0.18955,2.323 -6.0769,5.70767 -11.84881,6.81196 -0.917264,0.17549 -1.750694,0.28725 -1.852074,0.24835 -0.10137,-0.0389 -0.17038,-0.26357 -0.15336,-0.49929 0.017,-0.2357 0.0364,-1.48095 0.0431,-2.76722 l 0.0121,-2.33866 0.60478,-0.0967 c 2.442484,-0.39057 7.479134,-2.90748 7.479134,-3.73745 0,-0.0989 -0.44392,-0.76249 -0.98652,-1.47475 -0.7909,-1.038242 -0.96527,-1.361932 -0.87942,-1.632442 0.15955,-0.50269 2.84348,-3.14155 3.97733,-3.91056 1.01736,-0.68998 2.32382,-1.24604 4.02637,-1.71372 0.7855,-0.21577 1.56459,-0.26776 4.04194,-0.2697 2.67172,-0.002 3.27,0.0426 4.62287,0.34551 4.13341,0.92547 7.79081,2.7936 10.35445,5.28886 1.94069,1.888912 3.23229,4.152122 3.95329,6.927082 0.30961,1.19164 0.38478,1.8385 0.39076,3.36302 0.0121,3.07489 -0.56085,5.07002 -2.11431,7.36257 -2.11368,3.11933 -5.84714,5.22584 -10.09623,5.69654 -0.90569,0.10034 -1.82231,0.1383 -2.03694,0.0844 -0.28081,-0.0706 -0.65366,-0.49755 -1.32968,-1.52276 -0.91649,-1.38989 -0.95349,-1.42469 -1.51504,-1.42469 -1.21107,0 -3.76967,1.21586 -5.89685,2.80223 -4.3854,3.27047 -6.71575,7.05837 -6.47025,10.51718 0.096,1.35185 0.40015,2.29237 1.13291,3.50267 1.12469,1.85767 2.57416,2.39572 3.88865,1.44351 0.70241,-0.50883 1.18987,-1.35479 1.31637,-2.28448 0.0696,-0.5118 0.0229,-0.71747 -0.23822,-1.04838 -0.17867,-0.22643 -0.43086,-0.41169 -0.56044,-0.41169 -0.12957,0 -0.55968,0.30315 -0.95577,0.67366 -0.83201,0.77824 -1.3117,0.8571 -1.8626,0.30621 -1.39197,-1.39197 1.55508,-3.17927 3.58981,-2.1771 0.33475,0.16487 0.81028,0.58577 1.05672,0.93532 0.59719,0.84708 0.71596,2.41476 0.25943,3.42409 -0.74758,1.65277 -2.40623,2.79064 -4.27374,2.93187 -0.93312,0.0706 -1.21598,0.0287 -2.03149,-0.30069 l -0.94744,-0.38268 0.1068,0.47582 c 0.29563,1.31706 0.32575,1.658 0.20419,2.31175 -0.17167,0.92329 -0.79361,2.14239 -1.38206,2.70911 -0.25721,0.24771 -0.86184,0.65688 -1.34365,0.90927 -1.12049,0.587 -2.4998,0.64019 -3.51897,0.13573 z m 34.68808,0.0486 c -1.22005,-0.61289 -1.52898,-2.13637 -0.61794,-3.04741 1.2497,-1.2497 3.33402,-0.43977 3.33402,1.29554 0,1.40435 -1.49211,2.36675 -2.71608,1.75187 z m -82.920724,-3.16345 c -0.75608,-0.39979 -1.73835,-1.52032 -1.9264,-2.19758 -0.22773,-0.82016 -0.20162,-1.29489 0.12184,-2.21521 0.33694,-0.95869 0.85977,-1.74184 2.091,-3.13226 1.41841,-1.60181 1.77838,-2.9074 1.307,-4.74043 l -0.21051,-0.81856 0.57861,0.64856 c 0.82782,0.92789 1.2383,2.10214 1.14697,3.2811 -0.0399,0.5146 -0.0567,0.93564 -0.0374,0.93564 0.0193,0 0.73022,-0.79155 1.57981,-1.75899 0.8496,-0.96745 1.62694,-1.85014 1.72742,-1.96153 0.14949,-0.16572 0.52693,0.13356 2.07681,1.64672 l 1.8941,1.84925 -1.8771,1.72157 c -1.03241,0.94686 -1.87739,1.75524 -1.87775,1.79641 0,0.0412 0.43649,0.0523 0.97076,0.0248 1.22113,-0.063 2.21965,0.25418 3.05726,0.97114 0.69605,0.5958 0.71863,0.74061 0.0774,0.49682 -0.7261,-0.27606 -2.3311,-0.21586 -3.08028,0.11553 -0.36874,0.16311 -1.23866,0.80898 -1.93314,1.43526 -1.68468,1.51922 -2.99819,2.19833 -4.2347,2.18944 -0.60078,-0.004 -1.10477,-0.10417 -1.45173,-0.28763 z m 1.89376,-1.41235 c 0.56581,-0.56581 0.64332,-1.04251 0.28287,-1.73954 -0.27494,-0.53169 -0.69798,-0.77545 -1.34575,-0.77545 -0.64778,0 -1.07082,0.24376 -1.34576,0.77545 -0.40319,0.77967 -0.21032,1.55382 0.49635,1.99222 0.66988,0.41558 1.33145,0.32817 1.91229,-0.25268 z m 76.072724,1.47999 c -0.76809,-0.28214 -1.80762,-1.00857 -2.92596,-2.04467 -1.78287,-1.65177 -3.22495,-2.02279 -5.34694,-1.37568 -0.5301,0.16167 0.28649,-0.59801 1.16786,-1.08644 0.68963,-0.38219 0.92596,-0.43131 2.07512,-0.43131 1.52902,0 1.58936,0.16702 -0.69805,-1.93202 -0.90569,-0.83111 -1.64671,-1.57848 -1.64671,-1.66081 0,-0.0823 0.81388,-0.93952 1.80862,-1.90486 l 1.80862,-1.75515 1.44327,1.62122 c 0.7938,0.89166 1.57442,1.78254 1.7347,1.9797 l 0.29143,0.35849 0.007,-1.17263 c 0.005,-0.93063 0.0834,-1.33226 0.37776,-1.94612 0.61973,-1.29224 1.55892,-2.18366 1.14013,-1.08215 -0.085,0.22359 -0.16151,0.86362 -0.17001,1.4223 -0.0203,1.33307 0.2834,1.99244 1.65905,3.60196 1.95224,2.28414 2.53186,4.1038 1.79322,5.62964 -0.3219,0.66498 -1.33067,1.5959 -2.00867,1.85367 -0.55185,0.20982 -1.83941,0.17127 -2.51026,-0.0751 z m 3.04108,-1.4086 c 1.33526,-1.33526 -0.46156,-3.34743 -2.05616,-2.3026 -0.39399,0.25815 -0.65111,1.02002 -0.54015,1.60047 0.11552,0.6043 0.84832,1.13973 1.55988,1.13973 0.46228,0 0.69865,-0.0998 1.03643,-0.4376 z m -71.661634,-9.77254 c -1.43629,-1.41645 -2.65024,-2.73008 -2.69771,-2.91918 -0.21418,-0.85336 0.47076,-1.59996 1.31906,-1.43779 0.25147,0.048 1.35067,1.00623 3.03216,2.64308 2.37239,2.30943 2.63734,2.6173 2.6343,3.06101 -0.005,0.65067 -0.5722,1.22824 -1.20734,1.22824 -0.40623,0 -0.81883,-0.34493 -3.08047,-2.57536 z m 58.272034,2.26509 c -0.3024,-0.23787 -0.39445,-0.44293 -0.39445,-0.87869 0,-0.53634 0.13978,-0.70687 2.47572,-3.02059 2.75976,-2.73352 3.09526,-2.97091 3.75303,-2.65566 0.23664,0.11342 0.52114,0.39589 0.63226,0.62771 0.37367,0.77965 0.39405,0.75435 -3.9697,4.92761 -1.48367,1.41889 -1.80188,1.54628 -2.49686,0.99962 z m -55.887214,-4.82563 -2.05594,-2.01826 0.57992,-0.65199 c 0.31896,-0.3586 1.40196,-1.56143 2.40668,-2.67296 1.00472,-1.11154 1.99244,-2.21611 2.19496,-2.45461 l 0.36819,-0.43365 1.41099,0.66922 c 1.10504,0.5241 3.28531,1.97585 4.22024,2.81007 0.0983,0.0877 -1.25507,1.39049 -6.13677,5.90774 l -0.93233,0.86272 -2.05594,-2.01828 z m 51.662374,-1.3039 c -1.9689,-1.82489 -3.57984,-3.376 -3.57984,-3.4469 0,-0.25086 2.78198,-2.23385 3.85339,-2.7467 1.87219,-0.89615 1.60386,-0.99434 3.71233,1.35855 1.01935,1.13751 2.24304,2.4724 2.71932,2.96641 0.47627,0.49402 0.86635,0.96651 0.86685,1.04999 0,0.0835 -0.89756,1.04837 -1.99566,2.1442 l -1.99652,1.99243 -3.57987,-3.31798 z M 79.303356,116.75925 c -1.00861,-0.99856 -2.43481,-2.0328 -3.99779,-2.89907 l -0.90605,-0.50218 1.78761,-1.97805 1.78762,-1.97805 1.05784,0.53271 c 1.32912,0.66934 4.133,1.60772 5.84716,1.9569 0.72044,0.14675 1.30989,0.30674 1.30989,0.35553 0,0.0488 -0.5218,0.55571 -1.15955,1.12646 -0.63774,0.57076 -1.73243,1.58397 -2.43265,2.25159 -0.70021,0.66761 -1.50889,1.41266 -1.79706,1.65568 l -0.52395,0.44185 -0.97307,-0.96337 z m 25.814944,-0.15406 c -0.57833,-0.54798 -1.87906,-1.76724 -2.89054,-2.70946 l -1.83904,-1.71313 1.62058,-0.4046 c 1.90359,-0.47526 3.76372,-1.12314 5.32833,-1.85585 1.30586,-0.61154 1.37326,-0.62114 1.64414,-0.23439 0.16068,0.22938 2.71361,3.02075 3.18152,3.47864 0.0576,0.0564 -0.32189,0.31783 -0.8433,0.58103 -1.49281,0.75357 -2.95981,1.77608 -4.09977,2.85757 l -1.05042,0.99652 -1.0515,-0.99633 z m -14.287924,-1.86891 c -0.85577,-0.45065 -1.07468,-0.66008 -1.42664,-1.36491 l -0.36977,-0.74048 0,-12.21441 0,-12.214412 0.33682,-0.65927 c 0.18526,-0.36261 0.59546,-0.86528 0.91157,-1.11706 0.56967,-0.45377 0.59285,-0.45821 2.64151,-0.50626 1.83955,-0.0431 2.13229,-0.0151 2.66246,0.25542 0.74397,0.37955 1.32372,1.05674 1.52493,1.78125 0.10042,0.36157 0.15491,4.76975 0.15545,12.575092 0.002,13.13873 0.0349,12.60744 -0.86789,13.55544 -0.67432,0.70807 -1.22215,0.84861 -3.30377,0.8476 -1.27229,-5.9e-4 -2.01278,-0.0654 -2.26467,-0.198 z m -4.19164,-10.89658 c -0.85869,-0.22993 -2.69463,-0.90485 -2.69463,-0.9906 0,-0.0438 0.6533,-0.7851 1.4518,-1.64737 l 1.45177,-1.567772 -0.8904,-0.84611 c -0.48973,-0.46536 -1.79728,-1.68765 -2.9057,-2.71621 -2.72134,-2.52528 -6.71572,-6.24992 -8.09302,-7.54648 -2.20696,-2.07759 -4.64859,-4.32898 -4.90288,-4.52086 -0.23146,-0.17465 0.17034,-0.61576 3.85843,-4.23594 2.26423,-2.22253 4.15048,-4.04403 4.19164,-4.04775 0.0412,-0.004 0.74851,0.7499 1.57187,1.67472 0.82336,0.92483 1.93489,2.15716 2.47007,2.73853 0.53519,0.58136 1.24253,1.35754 1.57187,1.72484 0.77656,0.86605 3.45629,3.82589 4.00233,4.42065 l 0.42331,0.46111 -0.22928,0.88024 c -0.1916,0.73565 -0.22926,2.1537 -0.22926,8.63326 0,8.660222 0.10576,7.894642 -1.04792,7.585742 z m 11.96425,-0.0947 c -0.007,-0.14409 -0.0299,-3.798672 -0.0519,-8.121312 -0.022,-4.32263 -0.0858,-8.06142 -0.14172,-8.30843 -0.0924,-0.40803 -0.002,-0.55323 0.98753,-1.58741 0.59906,-0.62607 1.903204,-2.04075 2.898074,-3.14373 0.99486,-1.10299 2.8022,-3.1009 4.01631,-4.43982 l 2.20747,-2.43438 0.72071,0.63796 c 0.39638,0.35089 2.26048,2.17101 4.1424,4.04474 l 3.42172,3.40676 -0.6187,0.56033 c -0.71604,0.64848 -3.88997,3.60655 -5.74311,5.35252 -1.67467,1.57783 -3.09636,2.90162 -5.4644,5.08811 -1.07007,0.98803 -2.55204,2.36407 -3.29327,3.05786 -0.74123,0.6938 -1.46302,1.36746 -1.60398,1.49702 -0.238654,0.21936 -0.159104,0.34341 1.15666,1.803472 0.77713,0.86235 1.36402,1.61659 1.3042,1.67609 -0.17138,0.17049 -3.254864,1.1722 -3.608274,1.1722 -0.1984,0 -0.32233,-0.0985 -0.32975,-0.26198 z M 66.513736,82.737988 c -0.62877,-0.55207 -0.79817,-1.2208 -0.49378,-1.94931 0.26786,-0.64105 8.59701,-8.80833 9.2715,-9.09129 0.95978,-0.40266 2.07772,0.14412 2.31038,1.12999 0.29607,1.25453 0.58426,0.88052 -4.59257,5.95986 -4.54919,4.46353 -4.48639,4.41129 -5.303,4.41129 -0.53246,0 -0.77445,-0.0935 -1.19253,-0.46054 z m 49.708994,-1.44514 c -1.08023,-1.04811 -3.14295,-3.06753 -4.58383,-4.48759 l -2.61978,-2.58193 0,-0.81109 c 0,-0.92067 0.27446,-1.34541 1.09323,-1.69185 1.07051,-0.45295 1.26789,-0.31729 5.2611,3.61606 2.02163,1.99132 3.96624,3.88442 4.32134,4.20688 1.06632,0.96831 1.33417,1.82333 0.859,2.74219 -0.3157,0.6105 -0.86855,0.91301 -1.6686,0.91301 -0.69198,0 -0.71649,-0.0176 -2.66246,-1.90568 z m -52.927714,-2.23957 c -0.66403,-0.55083 -1.20733,-1.06658 -1.20733,-1.14611 0,-0.0795 0.28631,-0.41509 0.63623,-0.74568 0.34993,-0.33059 2.28681,-2.22316 4.30421,-4.20572 2.01738,-1.98255 4.08102,-3.99896 4.58589,-4.48092 l 0.91793,-0.87628 1.06909,1.32539 1.06908,1.32538 -4.98132,4.89494 c -2.73973,2.69222 -5.02748,4.89845 -5.0839,4.90273 -0.0564,0.004 -0.64583,-0.4429 -1.30988,-0.99373 z m 56.996694,-0.68831 c -2.34332,-2.24567 -8.20371,-8.06953 -8.20371,-8.15258 0,-0.11907 1.99216,-2.58301 2.08256,-2.57576 0.0485,0.004 2.44044,2.31659 5.3155,5.13934 l 5.22738,5.13228 -1.26029,1.07326 c -0.69316,0.59029 -1.29397,1.0707 -1.33514,1.06758 -0.0412,-0.003 -0.863,-0.76097 -1.8263,-1.68412 z m -63.552244,0.40768 c -0.63342,-0.49924 -0.88085,-1.35494 -0.59082,-2.04324 0.12667,-0.30058 2.7588,-2.99655 6.76506,-6.92917 3.60676,-3.54044 6.79603,-6.69257 7.08728,-7.00474 0.75126,-0.80522 1.38155,-1.154 2.08546,-1.154 1.13983,0 1.98094,1.15386 1.66782,2.28793 -0.097,0.35118 -0.87349,1.21461 -2.71998,3.0244 -1.42136,1.3931 -4.73547,4.64761 -7.36469,7.23224 -2.62921,2.58463 -4.94087,4.76035 -5.13702,4.83492 -0.63203,0.2403 -1.28848,0.14938 -1.79311,-0.24834 z m 71.265334,0.1915 c -0.25852,-0.14426 -11.056,-10.64677 -14.15173,-13.76513 -0.84292,-0.84908 -1.01656,-1.14702 -1.01656,-1.74421 0,-1.12857 0.89339,-1.90341 2.04497,-1.77361 0.75219,0.0848 0.2388,-0.38419 8.6587,7.90967 1.97606,1.94649 4.28926,4.20456 5.14046,5.01795 1.65587,1.5823 1.97036,2.02146 1.97036,2.75135 0,1.336 -1.49861,2.24437 -2.6462,1.60398 z m -75.947114,-3.57565 c -1.18305,-0.33472 -2.56728,-1.79874 -3.24255,-3.42942 -0.33513,-0.80925 -0.41408,-1.28076 -0.49939,-2.9822 -0.11478,-2.28873 -0.3049,-2.90386 -1.08034,-3.49532 -0.79382,-0.60548 -1.71311,-0.87559 -3.06078,-0.89935 -1.391,-0.0245 -1.38335,0.0476 -0.13463,-1.26888 2.04566,-2.15666 4.5875,-2.29813 6.92188,-0.38527 0.3557,0.29145 0.6467,0.49087 0.6467,0.44314 0,-0.0477 -0.1355,-0.57432 -0.30114,-1.17021 -0.22964,-0.82616 -0.2965,-1.49226 -0.28157,-2.80501 0.0118,-1.03524 -0.0577,-1.97874 -0.1743,-2.36665 -0.41597,-1.38396 -1.94405,-2.52956 -3.90863,-2.9303 -0.4872,-0.0994 -0.88843,-0.23539 -0.89162,-0.30224 -0.0112,-0.23581 1.52855,-1.27052 2.34573,-1.57626 2.03912,-0.76293 3.77664,-0.22685 5.75507,1.77565 0.64669,0.65458 1.36251,1.5087 1.59068,1.89804 0.49801,0.8498 0.59346,0.68076 0.36298,-0.64283 -0.18316,-1.05173 -0.59143,-2.00267 -1.0965,-2.55396 -0.16942,-0.18493 -0.27625,-0.36804 -0.23738,-0.4069 0.17986,-0.17987 2.93882,1.49675 4.23535,2.57382 0.32299,0.26832 0.6077,0.46741 0.63268,0.44242 0.025,-0.025 -0.0928,-0.40924 -0.26176,-0.85391 -0.39202,-1.0317 -0.51375,-2.51855 -0.2998,-3.66171 0.25677,-1.37192 1.22006,-3.17179 2.24116,-4.18754 1.32171,-1.31478 1.38697,-1.30658 0.88235,0.11087 -0.56788,1.59512 -0.7013,3.14515 -0.34993,4.06519 0.36303,0.95058 1.62154,2.04777 3.20803,2.79682 5.17091,2.44141 5.60956,2.84837 5.35815,4.97108 -0.0502,0.42401 -0.29494,1.18457 -0.54384,1.69014 -0.45438,0.92299 -1.57764,2.06017 -13.06976,13.23167 -0.88851,0.86373 -1.86531,1.68654 -2.17068,1.82847 -0.60821,0.28269 -1.75479,0.32304 -2.57616,0.0906 z m 2.70292,-2.97292 c 0.49244,-0.26355 0.78111,-1.01422 0.70292,-1.82793 -0.0886,-0.92243 -0.42336,-1.38196 -1.54492,-2.12089 -0.48832,-0.32173 -1.3829,-0.95145 -1.98795,-1.39939 -0.74822,-0.55395 -1.07394,-0.72595 -1.01835,-0.5378 0.0449,0.15215 0.18395,0.68083 0.30892,1.17485 0.31058,1.22773 0.71971,2.37747 1.21831,3.42376 0.58401,1.22552 1.4938,1.73014 2.32107,1.2874 z m 6.46408,-6.38975 c 0.15969,-0.1445 0.2642,-0.45326 0.2642,-0.78048 0,-1.136 -2.17327,-3.70088 -3.8174,-4.5053 -0.84214,-0.41203 -2.97414,-0.88989 -3.15656,-0.70748 -0.0454,0.0454 0.15141,0.38893 0.43728,0.76345 0.31145,0.40801 0.56092,0.93895 0.62241,1.3246 0.24252,1.52107 1.40464,3.31486 2.52149,3.89206 1.12667,0.58227 2.49337,0.58801 3.12858,0.0131 z m 5.93059,-5.18501 c 0.69254,-1.41523 0.80991,-2.99711 0.2959,-3.98776 -0.6325,-1.21903 -1.93296,-1.79842 -4.03661,-1.79842 -0.48277,0 -0.87752,0.0505 -0.87721,0.11227 0,0.0618 0.31422,0.2413 0.69761,0.399 0.39736,0.16343 1.0984,0.68025 1.63055,1.20201 1.2652,1.24055 1.6282,2.42911 1.28383,4.20379 -0.26348,1.35786 0.31421,1.28269 1.00593,-0.13089 z m 65.413564,14.45703 c -0.30373,-0.14193 -1.48263,-1.16395 -2.61978,-2.27115 -9.4463,-9.19754 -12.09913,-11.84404 -12.42322,-12.39359 -0.78574,-1.33234 -0.9935,-2.95987 -0.50107,-3.92511 0.42327,-0.82969 0.91179,-1.13472 4.6609,-2.91022 2.04668,-0.96928 3.26219,-1.97093 3.66194,-3.01767 0.37117,-0.97188 0.22898,-2.65037 -0.35106,-4.14417 -0.39337,-1.01305 -0.4138,-1.13552 -0.1673,-1.00361 0.88127,0.47164 2.44289,2.56877 2.98695,4.01122 0.59017,1.56469 0.53857,3.8713 -0.11551,5.16302 -0.11853,0.23408 -0.19311,0.44799 -0.16573,0.47536 0.0274,0.0274 0.62179,-0.38348 1.32092,-0.91303 1.10701,-0.83846 3.35282,-2.15859 3.67224,-2.15859 0.0604,0 -0.0619,0.17175 -0.27184,0.38167 -0.20991,0.20991 -0.51891,0.67364 -0.68665,1.0305 -0.30661,0.65226 -0.69538,2.47617 -0.59318,2.78279 0.0301,0.0904 0.34659,-0.27618 0.70321,-0.81469 0.8497,-1.28309 2.30302,-2.62759 3.47123,-3.21136 1.67681,-0.83791 3.51672,-0.56393 5.37535,0.80044 0.4222,0.30992 0.72684,0.60429 0.67698,0.65415 -0.0499,0.0499 -0.48079,0.17024 -0.95759,0.2675 -1.8284,0.37295 -3.10807,1.24507 -3.70368,2.52411 -0.30613,0.65738 -0.34954,0.97977 -0.35288,2.62086 -0.004,1.67798 -0.1215,2.53643 -0.5324,3.87023 -0.0996,0.32335 -0.0497,0.3073 0.6092,-0.19559 2.77301,-2.11669 5.26618,-1.74846 7.55482,1.11581 l 0.41867,0.52395 -1.14296,0.0156 c -2.00332,0.0274 -3.10391,0.52877 -3.7574,1.71174 -0.3232,0.58508 -0.37324,0.87928 -0.40364,2.37355 -0.0419,2.05838 -0.38195,3.32441 -1.23553,4.59975 -0.63162,0.94371 -1.71754,1.85394 -2.54269,2.13134 -0.73661,0.24762 -1.95063,0.20313 -2.5883,-0.0948 z m 1.22751,-2.95352 c 0.47202,-0.2441 1.04321,-1.11289 1.42978,-2.17474 0.40517,-1.1129 1.11273,-3.63863 1.03978,-3.71158 -0.0376,-0.0376 -0.42373,0.20289 -0.85808,0.53439 -0.43435,0.33151 -1.26757,0.90641 -1.85161,1.27758 -0.58403,0.37117 -1.20538,0.85731 -1.3808,1.08031 -0.62882,0.79942 -0.60837,2.12339 0.0437,2.82694 0.41422,0.44696 0.93035,0.50164 1.57727,0.1671 z m -5.13595,-6.09123 c 1.28931,-0.5507 2.42039,-1.97904 2.82598,-3.56866 0.29732,-1.16527 0.70095,-1.99655 1.10779,-2.28151 0.42895,-0.30046 0.27948,-0.36046 -0.75026,-0.30118 -2.20976,0.12722 -4.09248,1.4197 -5.57168,3.82493 -0.7471,1.21481 -0.71775,2.03124 0.0846,2.35453 0.48142,0.19397 1.8219,0.17762 2.30353,-0.0281 z m -7.59668,-5.09293 c -0.12718,-1.4603 -0.0326,-2.43933 0.30463,-3.15361 0.40168,-0.85079 1.72613,-2.08295 2.64508,-2.46079 0.35662,-0.14662 0.64864,-0.32628 0.64894,-0.39925 0,-0.073 -0.62257,-0.0992 -1.38417,-0.0582 -2.62986,0.14138 -3.85556,1.2024 -3.85221,3.33464 0.002,1.07616 0.56529,2.726 1.16461,3.40925 0.33616,0.38323 0.53983,0.094 0.47312,-0.672 z m -26.258434,-1.35251 c -0.0317,-0.10292 -0.41199,-2.51124 -0.84508,-5.35183 -0.43308,-2.84058 -0.82914,-5.21492 -0.88009,-5.2763 -0.051,-0.0614 -0.48345,1.89223 -0.96106,4.34135 -0.47761,2.44911 -0.93488,4.77308 -1.01616,5.16436 l -0.14777,0.71142 -0.66794,-0.47967 c -0.36737,-0.26383 -0.72976,-0.55418 -0.80534,-0.64524 -0.0861,-0.10373 0.17215,-1.7556 0.69151,-4.42339 0.4559,-2.34181 0.8651,-4.49361 0.90931,-4.78178 0.0612,-0.39842 -0.30438,0.10374 -1.52565,2.09582 -0.88333,1.44088 -1.9076,3.14254 -2.27615,3.78147 l -0.67007,1.1617 -0.62225,-0.47725 c -0.34225,-0.26249 -0.68044,-0.52681 -0.75155,-0.58738 -0.0711,-0.0606 0.42247,-1.02708 1.09682,-2.14779 1.34771,-2.2398 1.03396,-1.93921 4.87879,-4.67402 l 2.10379,-1.49641 2.23748,1.55837 2.2375,1.55838 1.54382,2.79471 1.543814,2.79471 -0.49584,0.42212 c -0.27271,0.23216 -0.606084,0.48305 -0.740814,0.55754 -0.25189,0.13926 -0.20147,0.22263 -3.78174,-6.25337 -0.42006,-0.75981 -0.80458,-1.38294 -0.85448,-1.38474 -0.0499,-0.002 -0.0322,0.31672 0.0393,0.70782 0.28398,1.55329 1.48451,9.3567 1.44303,9.37968 -0.0243,0.0135 -0.35873,0.27479 -0.7431,0.58069 -0.76715,0.6105 -0.85504,0.64501 -0.94005,0.36903 z m 7.899964,-6.87303 c -0.39716,-0.35721 -0.75578,-0.68601 -0.79695,-0.73069 -0.0412,-0.0447 -0.81587,-0.72695 -1.72157,-1.51617 l -1.646724,-1.43497 -0.78593,-2.38101 c -0.43226,-1.30957 -0.78593,-2.46239 -0.78593,-2.56183 0,-0.0994 0.6905,-0.52742 1.53444,-0.95107 l 1.534444,-0.77027 4.24205,0.0833 c 2.33312,0.0458 4.26013,0.10551 4.28222,0.13268 0.0707,0.0868 0.53267,1.51993 0.53267,1.6522 0,0.07 -2.37464,0.0827 -5.27698,0.0282 -2.90233,-0.0545 -5.243294,-0.0673 -5.202134,-0.0285 0.0411,0.0388 2.516864,1.00772 5.501534,2.15307 2.98468,1.14535 5.42668,2.11709 5.42668,2.15943 0,0.0423 -0.35367,0.35061 -0.78593,0.68505 l -0.78593,0.60807 -4.94015,-1.90473 c -2.71708,-1.0476 -4.965454,-1.88065 -4.996384,-1.85123 -0.0309,0.0294 0.16891,0.24152 0.44406,0.47132 0.27515,0.22981 1.830304,1.58653 3.455874,3.01494 l 2.95561,2.59711 -0.48047,0.38777 c -0.26427,0.21327 -0.59342,0.48205 -0.73144,0.59728 -0.22202,0.18535 -0.33429,0.13459 -0.97306,-0.43995 z m -20.744684,-0.39046 c -0.3911,-0.28138 -0.71108,-0.56382 -0.71108,-0.62765 0,-0.0638 0.92627,-0.85985 2.0584,-1.76894 4.53245,-3.63951 5.05352,-4.07504 4.8755,-4.07504 -0.0619,0 -0.38419,0.0996 -0.71629,0.22143 -0.3321,0.12177 -2.57789,0.89623 -4.99066,1.72102 l -4.38685,1.4996 -0.8904,-0.62792 c -0.48973,-0.34536 -0.83976,-0.67086 -0.77785,-0.72332 0.0619,-0.0525 2.53771,-0.92141 5.5018,-1.93098 2.96409,-1.00958 5.47937,-1.88556 5.5895,-1.94663 0.11013,-0.0611 -2.00858,-0.15788 -4.70822,-0.21513 -2.69966,-0.0573 -4.93262,-0.12823 -4.96212,-0.15775 -0.0295,-0.0295 0.0583,-0.43885 0.19517,-0.90965 l 0.24886,-0.85598 3.98908,0.10999 3.98907,0.11 1.75168,0.87709 1.75167,0.87708 -0.21359,0.7136 c -0.11749,0.39248 -0.43417,1.36076 -0.70376,2.15173 -0.55061,1.61542 -0.0978,1.13513 -4.23271,4.49003 l -1.94612,1.57901 -0.71108,-0.51159 z m 18.450714,-11.48727 c -0.452844,-0.10562 -1.736794,-0.37597 -2.853204,-0.60079 l -2.02985,-0.40876 -0.83373,-2.51069 -0.83374,-2.5107 0.59875,-3.08455 0.59875,-3.08454 0.95779,0 c 0.91702,0 0.95442,0.0144 0.87834,0.33683 -0.27497,1.16561 -1.72691,8.84061 -1.68111,8.88642 0.0308,0.0308 0.33965,-0.43188 0.68628,-1.02821 1.21218,-2.08528 4.760394,-7.90479 4.912194,-8.05659 0.0842,-0.0842 0.59863,-0.13301 1.14306,-0.10838 l 0.9899,0.0448 -2.84809,4.7156 c -1.566464,2.59358 -2.954074,4.9177 -3.083614,5.1647 -0.22843,0.43558 -0.22702,0.4419 0.0469,0.20963 0.15535,-0.13171 1.65585,-1.34429 3.334444,-2.69462 1.67861,-1.35034 3.39643,-2.73889 3.81739,-3.08568 0.42098,-0.34679 0.80776,-0.63309 0.85953,-0.63623 0.0952,-0.006 0.27776,0.41995 0.55729,1.29954 l 0.15315,0.48189 -3.24661,2.61132 c -3.855944,3.10142 -4.347374,3.52163 -4.128014,3.52964 0.0916,0.004 2.031484,-0.63119 4.310914,-1.41009 2.85519,-0.97563 4.16475,-1.35982 4.20978,-1.23504 0.34778,0.96389 0.51464,1.5083 0.47457,1.54839 -0.17682,0.1768 -5.41436,1.84806 -5.74991,1.83475 -0.2298,-0.009 -0.78834,-0.103 -1.24119,-0.20862 z m -16.991124,-0.44115 c -0.65869,-0.2695 -1.84694,-0.73911 -2.64056,-1.0436 l -1.44294,-0.55361 0.24219,-0.75735 c 0.1332,-0.41654 0.31878,-0.78673 0.4124,-0.82266 0.23375,-0.0897 8.17898,2.9746 8.03521,3.09901 -0.12542,0.10854 -2.84133,0.60321 -3.19275,0.58153 -0.11877,-0.007 -0.75487,-0.23382 -1.41355,-0.50332 z m 2.91504,-1.97705 c -1.19159,-1.04219 -2.85703,-2.49891 -3.70097,-3.23716 -0.84395,-0.73825 -1.53445,-1.42295 -1.53445,-1.52158 0,-0.17452 0.44833,-1.60146 0.5367,-1.70824 0.0243,-0.0294 1.30255,1.04846 2.8405,2.39522 3.97757,3.48313 5.15579,4.48841 5.15579,4.39899 0,-0.0431 -0.33485,-0.68139 -0.74411,-1.41844 -0.40925,-0.73705 -1.01153,-1.83191 -1.33837,-2.43301 -0.32686,-0.6011 -1.22911,-2.23813 -2.00498,-3.63784 l -1.41072,-2.54492 0.98654,-0.045 c 0.78934,-0.036 1.02358,0.006 1.17183,0.20835 0.10191,0.13937 1.27524,2.23269 2.60741,4.65181 1.33218,2.41913 2.44117,4.37937 2.46443,4.35611 0.0348,-0.0348 -1.09643,-7.43538 -1.35041,-8.8344 l -0.0747,-0.41168 0.94061,0 0.94058,0 0.48805,3.10631 0.48803,3.1063 -0.84907,2.47008 c -0.46698,1.35854 -0.87438,2.49676 -0.90533,2.52937 -0.0532,0.0562 -2.05922,0.44001 -2.38695,0.45678 -0.0846,0.004 -1.12876,-0.84482 -2.32038,-1.88701 z M 44.779146,165.68427 c -0.75265,-0.10984 -1.25698,-0.42604 -1.7862,-1.11988 -0.2211,-0.28986 -0.47821,-0.52807 -0.57136,-0.52933 -0.0931,-0.002 -0.26286,-0.0615 -0.37714,-0.13387 -0.16674,-0.10561 -0.10949,-0.26848 0.28967,-0.82432 0.27361,-0.38099 0.56921,-0.66911 0.65691,-0.64026 0.0877,0.0288 0.19445,0.44123 0.23726,0.91641 0.0663,0.73604 0.14979,0.92823 0.56374,1.2981 0.58647,0.524 1.24383,0.5697 1.69565,0.11788 0.43513,-0.43513 0.31158,-1.05285 -0.46622,-2.3308 -0.54987,-0.90348 -0.61374,-1.10279 -0.55652,-1.73659 0.11278,-1.24886 1.19121,-1.96499 2.43396,-1.61623 0.7058,0.19807 0.9186,0.35601 1.47643,1.09571 0.23223,0.30795 0.47746,0.52579 0.54494,0.48407 0.34695,-0.21441 0.25195,0.30915 -0.16642,0.91724 -0.56007,0.81402 -0.73229,0.69914 -0.73582,-0.49078 -0.002,-0.65757 -0.0621,-0.82212 -0.39674,-1.08534 -0.47134,-0.37076 -0.77261,-0.38985 -1.21896,-0.0772 -0.49116,0.34403 -0.41149,0.80066 0.35996,2.0632 0.48796,0.79854 0.69716,1.30488 0.70787,1.71311 0.0336,1.27935 -1.21136,2.19482 -2.69101,1.97891 z m 98.849194,-1.2944 c -0.0486,-0.0486 -0.0569,-0.26577 -0.0183,-0.48247 0.0574,-0.32195 -0.21361,-0.76358 -1.48174,-2.41497 -1.11819,-1.45615 -1.65237,-2.03497 -1.91132,-2.07108 -0.64322,-0.0897 -0.57499,-0.23755 0.47765,-1.03523 1.32568,-1.0046 1.45573,-1.01397 1.16475,-0.084 -0.0306,0.0979 0.68198,1.15659 1.58355,2.35274 l 1.63923,2.1748 0.53144,-0.40052 c 0.79572,-0.59971 0.91008,-0.79992 0.86869,-1.52085 -0.021,-0.36563 0.0331,-0.68364 0.12158,-0.71432 0.0877,-0.0304 0.37146,0.23994 0.63061,0.6008 l 0.47117,0.6561 -0.33119,0.29766 c -0.33696,0.30284 -3.18815,2.45162 -3.49147,2.63133 -0.0914,0.0542 -0.20605,0.0587 -0.2547,0.0101 z m -106.264374,-4.14965 -0.69662,-0.6415 0.35951,-1.48579 c 0.3827,-1.58169 0.44301,-2.15946 0.22539,-2.15946 -0.0741,0 -0.48292,0.38103 -0.90855,0.84676 -0.60183,0.65849 -0.75483,0.92271 -0.68814,1.18843 0.15923,0.63439 -0.2113,0.53212 -1.18345,-0.32669 -0.93395,-0.82506 -1.1189,-1.22076 -0.49419,-1.0574 0.35198,0.092 0.66118,-0.19576 2.62939,-2.44751 0.95301,-1.09032 1.34873,-1.65172 1.29167,-1.83252 -0.17539,-0.55566 0.12422,-0.5639 0.73557,-0.0202 2.55123,2.2689 2.99814,2.84939 2.83816,3.68636 -0.10462,0.54729 -0.98829,1.31155 -1.50863,1.30477 -0.22357,-0.003 -0.57488,-0.10159 -0.78072,-0.21925 -0.51272,-0.29309 -0.63534,-0.27607 -0.52461,0.0728 0.0519,0.16355 -0.0145,0.8787 -0.14769,1.58923 -0.13315,0.71053 -0.1994,1.48615 -0.14725,1.7236 0.1352,0.61556 -0.16233,0.54961 -0.99984,-0.22166 z m 2.06181,-4.27322 c 0.52139,-0.31793 0.82294,-0.98269 0.65159,-1.43647 -0.062,-0.16424 -0.28038,-0.45427 -0.48524,-0.6445 l -0.37247,-0.34588 -0.77944,0.89614 c -0.4287,0.49288 -0.79053,0.94899 -0.80409,1.01357 -0.0297,0.14168 0.9247,0.80324 1.15769,0.80246 0.0907,0 0.37512,-0.1287 0.63196,-0.28532 z m 111.818314,2.21834 c -0.041,-0.11599 -0.0598,-0.32011 -0.0418,-0.45357 0.018,-0.13347 -0.76546,-1.09343 -1.741,-2.13324 -1.48146,-1.57905 -1.84531,-1.89058 -2.2081,-1.89058 -0.23891,0 -0.43437,-0.0525 -0.43437,-0.1166 0,-0.0641 0.43527,-0.548 0.96727,-1.07527 0.9647,-0.95614 1.14605,-0.99159 1.08047,-0.21122 -0.0186,0.22115 0.53991,0.92136 1.82758,2.29131 l 1.85435,1.97283 0.44197,-0.42005 c 0.71104,-0.67575 0.92249,-1.19066 0.70481,-1.71619 -0.14029,-0.33869 -0.14195,-0.48322 -0.007,-0.61801 0.1348,-0.13481 0.29741,-0.0434 0.69527,0.39091 0.28562,0.31177 0.51932,0.61504 0.51932,0.67393 0,0.10157 -2.06942,2.15949 -3.10189,3.08464 -0.3633,0.32556 -0.50048,0.38003 -0.55667,0.22111 z M 28.285126,151.30367 c -0.93037,-1.06789 -1.65042,-2.00819 -1.60012,-2.08958 0.0503,-0.0814 0.24276,-0.11002 0.42769,-0.0636 0.47719,0.11976 4.28617,-3.21121 4.28617,-3.74826 0,-0.19762 0.0543,-0.39286 0.12068,-0.43388 0.0664,-0.041 0.87231,0.75984 1.79097,1.77968 l 1.67029,1.85428 -0.62973,0.52309 c -0.51858,0.43076 -0.65183,0.4836 -0.75493,0.29935 -0.0696,-0.12431 -0.0602,-0.41018 0.021,-0.64334 0.17029,-0.48846 -0.079,-1.12723 -0.64885,-1.66257 l -0.35438,-0.33293 -0.90235,0.78483 c -0.75002,0.65234 -0.87771,0.83086 -0.75645,1.05745 0.20341,0.38008 0.44403,0.50267 0.9161,0.4667 0.64913,-0.0495 0.61991,0.19265 -0.10376,0.8597 -0.73608,0.67851 -1.03906,0.67769 -0.88969,-0.002 0.0681,-0.3102 0.0126,-0.53893 -0.19486,-0.80268 l -0.29012,-0.36883 -0.80687,0.68124 c -1.35589,1.14478 -1.30097,1.00008 -0.67137,1.76842 0.73538,0.89743 1.04218,1.05619 1.59696,0.8264 0.23805,-0.0986 0.54653,-0.13566 0.68551,-0.0823 0.21246,0.0815 0.16039,0.19148 -0.3271,0.69071 -0.31888,0.32656 -0.65032,0.59069 -0.73652,0.58694 -0.0862,-0.004 -0.91795,-0.88049 -1.84833,-1.94838 z m 129.865924,0.0638 c -0.0576,-0.0576 -0.10919,-0.27869 -0.11472,-0.4914 -0.008,-0.30774 -0.41109,-0.72195 -1.97372,-2.02808 -1.35535,-1.13287 -2.08268,-1.64302 -2.34777,-1.64672 -0.21123,-0.003 -0.39948,-0.0727 -0.41833,-0.15506 -0.0189,-0.0823 0.57174,-0.88191 1.31244,-1.77684 0.74069,-0.89493 1.40438,-1.73019 1.47487,-1.85615 0.10765,-0.19238 0.22753,-0.14917 0.74921,0.27007 0.34157,0.27449 0.59689,0.57084 0.56736,0.65853 -0.0295,0.0877 -0.3703,0.15946 -0.7573,0.15946 -0.6356,0 -0.75317,0.0579 -1.2164,0.59881 -0.28204,0.32934 -0.51533,0.64108 -0.51843,0.69275 -0.007,0.11754 1.63582,1.47792 1.7848,1.47792 0.31032,0 0.63892,-0.61532 0.55439,-1.03804 -0.13153,-0.6576 0.092,-0.67535 0.82213,-0.0653 0.76996,0.64328 0.82522,0.89195 0.18755,0.84403 -0.32887,-0.0247 -0.56385,0.0727 -0.81147,0.33624 -0.19171,0.20406 -0.32023,0.39103 -0.28561,0.41545 0.0346,0.0244 0.48312,0.40113 0.99666,0.83708 0.51352,0.43596 0.99253,0.7699 1.06447,0.7421 0.25856,-0.0999 1.37012,-1.49593 1.37012,-1.7207 0,-0.12638 -0.11517,-0.42476 -0.25596,-0.66309 -0.19051,-0.3225 -0.21263,-0.47664 -0.0865,-0.60274 0.12609,-0.1261 0.32484,-0.0404 0.7772,0.33536 0.33429,0.27764 0.60896,0.53847 0.61038,0.57964 0.002,0.0412 -0.59867,0.79892 -1.33354,1.68386 -0.73487,0.88496 -1.4961,1.81342 -1.69165,2.06326 -0.19552,0.24984 -0.4026,0.40716 -0.46016,0.34959 z m 6.27853,-8.09281 c -0.0527,-0.0527 -0.0957,-0.27208 -0.0957,-0.48762 0,-0.28474 -0.13301,-0.4686 -0.48653,-0.67255 -0.26759,-0.15436 -1.06337,-0.66588 -1.76839,-1.1367 -1.78709,-1.19342 -2.13346,-1.35485 -2.67465,-1.24661 -0.25283,0.0506 -0.45627,0.033 -0.45208,-0.0391 0.004,-0.072 0.29405,-0.53229 0.64415,-1.02277 l 0.63655,-0.89177 2.2376,-0.0524 c 1.23069,-0.0288 2.29825,-0.0688 2.37238,-0.0888 0.0741,-0.02 -0.4616,-0.42272 -1.19053,-0.8949 -1.07728,-0.69785 -1.40367,-0.8413 -1.74407,-0.76653 -0.52456,0.11521 -0.53261,-0.0569 -0.0391,-0.83853 0.38207,-0.60522 0.6683,-0.66491 0.6683,-0.13936 0,0.33308 0.0795,0.39445 2.61978,2.0229 2.66114,1.70593 2.52522,1.5937 2.29121,1.89206 -0.16695,0.21285 -0.66311,0.26287 -3.40836,0.34368 -1.76712,0.052 -3.23572,0.11734 -3.26355,0.14517 -0.0278,0.0278 0.81171,0.60124 1.86564,1.27424 1.6748,1.06946 1.97755,1.21227 2.40278,1.13338 0.2676,-0.0497 0.48653,-0.0487 0.48653,0.002 0,0.13878 -0.7596,1.40737 -0.89152,1.4889 -0.063,0.0389 -0.15771,0.0278 -0.21035,-0.0249 z M 21.819546,143.00617 c -0.15341,-0.18486 0.12055,-0.67496 1.61372,-2.88671 0.98919,-1.46523 1.82195,-2.83024 1.85059,-3.03335 0.0287,-0.20312 0.13372,-0.3693 0.23347,-0.3693 0.18617,0 1.5402,1.81884 1.5402,2.06891 0,0.0765 -0.19391,0.1004 -0.43091,0.053 -0.41028,-0.0821 -0.4861,-0.004 -1.58227,1.64255 -0.63326,0.9508 -1.12551,1.75458 -1.09392,1.78618 0.0316,0.0316 0.65942,-0.10502 1.39516,-0.3036 0.73572,-0.19858 1.62399,-0.43567 1.97392,-0.52687 0.52595,-0.13708 0.63623,-0.22817 0.63623,-0.52547 0,-0.60156 0.22669,-0.54841 0.73466,0.17226 0.33159,0.47041 0.4356,0.73527 0.33017,0.8407 -0.10544,0.10544 -0.22173,0.0977 -0.36914,-0.0247 -0.17031,-0.14135 -0.84192,-0.0213 -3.21945,0.57521 -1.65234,0.41459 -3.09953,0.75381 -3.21595,0.75381 -0.11643,0 -0.29485,-0.10019 -0.39648,-0.22265 z m -4.37927,-7.15015 c -0.44534,-0.68037 -1.02906,-1.9411 -0.93996,-2.03019 0.0504,-0.0504 0.22355,-0.009 0.38467,0.0912 0.24958,0.15586 0.46471,0.0947 1.45279,-0.41306 2.67405,-1.37413 3.55195,-1.92108 3.63273,-2.2633 0.14566,-0.61703 0.39663,-0.46101 0.94887,0.58992 0.67237,1.27952 0.68307,1.42224 0.097,1.29352 -0.36926,-0.0811 -0.78502,0.0792 -2.3578,0.90913 -2.34761,1.23875 -2.73286,1.50242 -2.73286,1.87037 0,0.38677 -0.2149,0.36569 -0.48546,-0.0476 z m 151.938974,-2.41989 c -0.66164,-0.32395 -0.69905,-0.37064 -0.47583,-0.59385 0.13324,-0.13325 0.40921,-0.24227 0.61325,-0.24227 0.59363,0 1.19428,-0.39443 1.46299,-0.96071 0.33687,-0.7099 0.18452,-1.24493 -0.43917,-1.54236 -0.56423,-0.26906 -0.61645,-0.24547 -2.31081,1.04348 -0.69582,0.52932 -1.06636,0.71108 -1.44967,0.71108 -1.84383,0 -2.5529,-2.15924 -1.21097,-3.68762 0.26076,-0.29697 0.48864,-0.63909 0.50642,-0.76026 0.0178,-0.12116 0.0629,-0.25089 0.10031,-0.28828 0.12543,-0.12543 1.45151,0.60184 1.45151,0.79605 0,0.18154 -0.53014,0.39717 -0.83302,0.33881 -0.68548,-0.13209 -1.2628,0.38332 -1.2628,1.12738 0,0.41739 0.0822,0.56263 0.4163,0.73539 0.5063,0.26183 0.69487,0.17515 1.79995,-0.82737 1.21526,-1.10248 2.17256,-1.27916 3.07682,-0.56786 1.15768,0.91064 1.1664,2.77837 0.0188,4.03197 -0.18844,0.20584 -0.366,0.50341 -0.3946,0.66125 -0.0752,0.41516 -0.26387,0.41959 -1.06948,0.0252 z M 13.821516,128.6117 c -0.0921,-0.24008 0.49172,-1.18275 2.74523,-4.4324 0.4996,-0.72044 0.85818,-1.3098 0.79684,-1.3097 -0.19787,3e-4 -3.84276,1.50887 -4.19088,1.73451 -0.18525,0.12008 -0.33683,0.35712 -0.33683,0.52675 0,0.50856 -0.33983,0.23814 -0.64975,-0.51704 -0.32004,-0.77983 -0.24681,-1.01067 0.2268,-0.71491 0.27466,0.17153 0.59142,0.083 2.65039,-0.74057 2.594,-1.0376 2.71272,-1.10345 2.71272,-1.50487 0,-0.62486 0.43846,-0.23329 0.80722,0.72089 l 0.38721,1.00196 -1.28119,1.93186 c -0.70464,1.06252 -1.25478,1.95825 -1.22252,1.99052 0.0323,0.0323 0.71058,-0.21805 1.50733,-0.55627 1.07708,-0.45719 1.44867,-0.68493 1.44867,-0.88782 0,-0.34454 0.29571,-0.53874 0.44718,-0.29367 0.20804,0.33662 0.50092,1.35042 0.41496,1.43638 -0.0465,0.0465 -0.22205,-0.002 -0.39018,-0.10643 -0.26725,-0.1669 -0.64104,-0.055 -2.97119,0.88969 -1.46601,0.59433 -2.74249,1.07977 -2.83659,1.07875 -0.0941,-0.001 -0.21355,-0.11245 -0.26542,-0.24763 z m 160.066224,-3.98172 c -0.0411,-0.28772 -0.40868,-0.46617 -2.59277,-1.25866 -2.29293,-0.83197 -2.56993,-0.90108 -2.79748,-0.69799 -0.50755,0.45302 -0.56222,0.0544 -0.15187,-1.10738 0.43602,-1.23452 0.62361,-1.43309 0.85521,-0.90519 0.11589,0.26416 0.67613,0.52961 2.58135,1.2231 2.20612,0.80301 2.46819,0.86706 2.80668,0.6859 0.20533,-0.10989 0.41376,-0.15937 0.46318,-0.10997 0.0494,0.0494 -0.10206,0.63318 -0.3366,1.29725 -0.42152,1.19347 -0.73483,1.5239 -0.8277,0.87294 z M 10.398156,117.813 c -0.9534801,-0.59025 -1.4375601,-2.51082 -0.9356201,-3.71212 0.27376,-0.6552 0.8256101,-0.9089 3.4107701,-1.56803 1.52929,-0.38993 1.9087,-0.53855 1.9087,-0.74769 0,-0.14357 0.0973,-0.29837 0.21622,-0.34401 0.21047,-0.0808 0.52449,0.72301 0.77832,1.99222 0.0951,0.47567 -0.1617,0.62811 -0.49562,0.29419 -0.1132,-0.11321 -0.76529,5.9e-4 -2.23803,0.3908 -2.37605,0.62944 -2.83446,0.82862 -2.99596,1.30176 -0.1730001,0.5069 -0.1694001,0.59386 0.0475,1.14649 0.42155,1.07384 1.04118,1.14135 3.78932,0.41288 1.50339,-0.39852 1.90033,-0.55993 2.01904,-0.82104 0.0813,-0.17875 0.22969,-0.32501 0.3298,-0.32501 0.16652,0 0.49267,0.86367 0.49466,1.30989 0.002,0.22774 -0.32966,0.24585 -0.54565,0.0299 -0.10987,-0.10988 -0.79318,0.003 -2.26785,0.37425 -2.36676,0.59602 -2.91491,0.63742 -3.51563,0.26555 z m 165.361804,-0.0926 c -0.34365,-0.0922 -0.67325,-0.21601 -0.73241,-0.27517 -0.16565,-0.16565 0.23495,-0.56391 0.5672,-0.56391 0.16283,0 0.5291,-0.23305 0.81394,-0.51789 0.451,-0.451 0.51191,-0.59891 0.47156,-1.14522 -0.0353,-0.47879 -0.14341,-0.69953 -0.45632,-0.93224 -0.37406,-0.27819 -0.44913,-0.28606 -0.85696,-0.0898 -0.24585,0.11829 -0.7696,0.61928 -1.16391,1.11329 -0.39429,0.49402 -0.97284,1.02367 -1.28567,1.17702 -0.50085,0.2455 -0.64864,0.25643 -1.2376,0.0915 -0.9479,-0.26539 -1.33333,-0.84849 -1.33333,-2.01705 0,-0.69177 0.0774,-1.00675 0.33682,-1.37043 0.18526,-0.25971 0.33683,-0.61339 0.33683,-0.78593 0,-0.17254 0.0712,-0.31372 0.15827,-0.31372 0.31932,0 1.48838,0.33782 1.48616,0.42945 -0.006,0.26271 -0.27836,0.45167 -0.78766,0.54722 -0.66238,0.12427 -1.00647,0.54267 -1.00647,1.22386 0,0.56769 0.54409,1.02826 1.03184,0.87346 0.16389,-0.052 0.647,-0.56539 1.07359,-1.14083 0.82846,-1.11753 1.34369,-1.48406 2.08621,-1.48406 1.81216,0 2.79197,2.24616 1.7501,4.01199 -0.17209,0.29169 -0.31629,0.69811 -0.32042,0.90317 -0.009,0.44972 -0.12308,0.48219 -0.93177,0.26527 z M 14.445176,75.233998 c -0.80541,-0.21391 -0.75189,-0.60511 0.11449,-0.83683 0.49922,-0.13353 0.75339,-0.30791 0.97249,-0.66728 0.59,-0.96767 0.2094,-2.06428 -0.71273,-2.05362 -0.50014,0.006 -0.65947,0.12971 -1.58672,1.23411 -1.13391,1.35054 -1.97492,1.62512 -2.95485,0.96473 -0.6456301,-0.43508 -0.8801401,-0.90549 -0.8829101,-1.77103 -0.002,-0.49195 0.1053,-0.8486 0.37205,-1.24169 0.20584,-0.30332 0.3742601,-0.72422 0.3742601,-0.93533 0,-0.33923 0.0455,-0.37241 0.39172,-0.28552 0.21544,0.0541 0.58915,0.13781 0.83045,0.18607 0.66934,0.13386 0.47759,0.52529 -0.37533,0.76619 -0.60715,0.17149 -0.75844,0.28966 -0.94625,0.73914 -0.2066601,0.49461 -0.2017301,0.56435 0.0652,0.92332 0.4636,0.62339 0.88045,0.58221 1.50833,-0.14902 1.51383,-1.76299 1.73171,-1.93274 2.48068,-1.93274 0.8751,0 1.46914,0.29913 1.85086,0.932 0.58242,0.96562 0.53592,2.25879 -0.11277,3.13619 -0.1737,0.23493 -0.30509,0.51038 -0.29201,0.61213 0.0774,0.60113 -0.0698,0.652 -1.09699,0.37918 z m 157.897694,-0.63009 c -0.95448,-0.42422 -1.57186,-1.51529 -1.57186,-2.77789 0,-0.41432 -0.0674,-0.75332 -0.1497,-0.75332 -0.0823,0 -0.14971,-0.12365 -0.14971,-0.27477 0,-0.205 0.20616,-0.33215 0.81197,-0.50076 0.76164,-0.21199 0.81629,-0.20941 0.88197,0.0417 0.0395,0.15124 -0.0622,0.38538 -0.23382,0.53819 -1.26911,1.12984 -0.34029,3.35355 1.08267,2.592 0.32238,-0.17254 0.53834,-0.78823 0.683,-1.94726 0.13091,-1.049 0.4084,-1.58503 1.01055,-1.95218 1.44524,-0.88122 3.29913,0.54517 3.03115,2.33217 -0.0685,0.45715 -0.0466,0.66792 0.0697,0.66792 0.0934,0 0.14798,0.1135 0.12128,0.25223 -0.031,0.16078 -0.30989,0.31891 -0.7692,0.43607 -0.96905,0.24721 -1.07597,-0.0287 -0.33077,-0.85349 0.4493,-0.49733 0.53442,-0.68661 0.45389,-1.0094 -0.13472,-0.53988 -0.50469,-0.92124 -0.89377,-0.92124 -0.64123,0 -0.83101,0.31688 -1.04575,1.74615 -0.11301,0.75211 -0.3263,1.55185 -0.47395,1.77721 -0.48422,0.739 -1.61776,1.01107 -2.52765,0.60666 z m -3.48183,-8.572 c -0.2683,-0.71172 -0.45344,-1.32838 -0.41146,-1.37038 0.042,-0.042 0.24023,0.0113 0.44054,0.11856 0.33419,0.17885 0.40109,0.15449 0.81241,-0.29587 l 0.44825,-0.49076 -0.3071,-0.7643 c -0.16891,-0.42036 -0.33858,-0.87544 -0.37708,-1.01127 -0.0724,-0.25557 -0.79667,-0.43643 -1.26122,-0.31494 -0.14844,0.0388 -0.28162,0.24005 -0.30765,0.46488 -0.0252,0.21804 -0.10912,0.39644 -0.18637,0.39644 -0.17151,0 -0.88171,-1.72236 -0.76027,-1.84379 0.0476,-0.0476 0.28017,0.0278 0.51677,0.16751 0.62792,0.37093 5.4624,0.37859 5.87046,0.009 0.25227,-0.2283 0.30604,-0.2177 0.79771,0.15732 0.28997,0.22117 0.52722,0.45626 0.52722,0.52242 0,0.12459 -4.02233,3.98192 -4.5098,4.3248 -0.15156,0.10661 -0.33034,0.40517 -0.39727,0.66347 -0.0669,0.25831 -0.18596,0.49012 -0.26451,0.51514 -0.0786,0.025 -0.36233,-0.53682 -0.63063,-1.24853 z m 2.71018,-3.3191 0.8657,-0.87482 -1.29706,-0.0207 c -1.17547,-0.0188 -1.28715,0.004 -1.19137,0.23859 0.0581,0.14262 0.20594,0.54563 0.32847,0.89555 0.12254,0.34993 0.26909,0.63623 0.32568,0.63623 0.0566,0 0.49246,-0.39366 0.96858,-0.87482 z m -156.751114,3.42573 c -1.71177,-0.61605 -2.55272,-1.8 -2.39107,-3.36631 0.0851,-0.82434 0.33493,-1.35104 0.97442,-2.0542 0.19984,-0.21973 0.32674,-0.45872 0.28201,-0.5311 -0.0447,-0.0724 -0.031,-0.21304 0.0306,-0.3126 0.0839,-0.13571 0.32175,-0.0956 0.95074,0.16029 0.71162,0.28952 0.81692,0.3805 0.69416,0.59983 -0.0895,0.16 -0.32731,0.25939 -0.62377,0.26075 -0.68522,0.003 -1.19,0.30123 -1.476,0.87156 -0.45367,0.90464 0.0653,1.82812 1.41285,2.51402 2.12155,1.07989 4.06527,0.53423 4.26029,-1.19597 0.0544,-0.48281 0.007,-0.79665 -0.15826,-1.04896 -0.24025,-0.36668 -0.19739,-0.54404 0.13147,-0.54404 0.21946,0 0.66496,1.05308 0.66496,1.57186 0,0.5056 -0.4183,1.54395 -0.86584,2.14936 -0.45574,0.61648 -1.69633,1.21736 -2.50244,1.21206 -0.32935,-0.002 -0.95218,-0.13111 -1.38407,-0.28655 z m 6.61538,-7.65166 c -0.0735,-0.11751 -0.13533,-0.31471 -0.13752,-0.43821 -0.002,-0.13796 -0.9413,-0.70184 -2.43452,-1.46216 -2.11187,-1.07533 -2.4692,-1.21348 -2.72524,-1.05358 -0.53946,0.3369 -0.51497,-0.0189 0.0826,-1.20087 0.57387,-1.13499 0.9564,-1.42372 0.9564,-0.72185 0,0.27075 0.41073,0.54035 2.38626,1.56626 2.09993,1.09053 2.42244,1.21662 2.68781,1.05089 0.55417,-0.34607 0.53099,0.0258 -0.0782,1.25459 -0.44544,0.89854 -0.63917,1.16247 -0.73764,1.00493 z m 143.529104,-1.29915 -0.45886,-0.86093 0.88711,-1.41449 c 1.21802,-1.94209 1.19036,-2.13408 -0.19821,-1.37572 -0.86441,0.47208 -1.09498,0.67168 -1.1327,0.98054 -0.0799,0.65421 -0.37542,0.4347 -0.98959,-0.73506 -0.58595,-1.11602 -0.61731,-1.48932 -0.0979,-1.16493 0.30008,0.18741 0.44594,0.12157 3.45398,-1.55895 1.04255,-0.58245 1.58851,-0.9767 1.62381,-1.17257 0.11903,-0.66053 0.32551,-0.45466 1.30988,1.30601 0.80714,1.44371 1.03035,1.97622 1.03222,2.46255 0.003,0.70323 -0.3343,1.18103 -1.04556,1.48236 -0.63727,0.26998 -1.20175,0.11296 -1.7213,-0.47878 l -0.44933,-0.51175 0,0.39531 c 0,0.21742 -0.30315,0.93437 -0.67366,1.59322 -0.37051,0.65885 -0.67365,1.35906 -0.67365,1.55602 0,0.61922 -0.38837,0.3938 -0.86627,-0.50283 z m 4.02151,-3.7683 c 0.49279,-0.49278 0.54358,-0.86932 0.20546,-1.52318 l -0.23214,-0.4489 -1.07436,0.59586 c -0.5909,0.32774 -1.09552,0.65933 -1.12137,0.73689 -0.0258,0.0776 0.13018,0.3516 0.34674,0.60898 0.53472,0.63546 1.25884,0.64718 1.87567,0.0304 z M 24.362896,52.451118 c 0,-0.29058 -0.30304,-0.55458 -1.60929,-1.40195 -2.83034,-1.83605 -2.86285,-1.85354 -3.1547,-1.69735 -0.14693,0.0786 -0.34752,0.0933 -0.44577,0.0326 -0.12355,-0.0764 0.1522,-0.61549 0.89433,-1.74855 0.59011,-0.90098 1.18026,-1.85348 1.31143,-2.11666 l 0.23848,-0.47851 0.72104,0.44879 c 0.58447,0.36378 0.68795,0.48866 0.54634,0.65928 -0.11329,0.13651 -0.32782,0.17987 -0.61036,0.12336 -0.2659,-0.0532 -0.53127,-0.008 -0.68096,0.11643 -0.22581,0.18741 -0.95307,1.24493 -0.95307,1.38588 0,0.0659 1.92243,1.29216 2.02577,1.29216 0.0343,0 0.16633,-0.20108 0.29343,-0.44685 0.18827,-0.36405 0.19661,-0.50205 0.045,-0.74477 -0.12689,-0.20318 -0.13732,-0.34665 -0.0329,-0.45115 0.19878,-0.19877 1.69664,0.74204 1.60249,1.00654 -0.0366,0.10292 -0.28537,0.18712 -0.55278,0.18712 -0.36531,0 -0.53595,0.093 -0.68635,0.37403 -0.23707,0.44298 -0.30816,0.35695 0.98461,1.19164 l 1.03623,0.66906 0.25762,-0.33143 c 0.14169,-0.18229 0.41115,-0.61922 0.5988,-0.97096 l 0.3412,-0.63953 -0.31547,-0.55808 c -0.47862,-0.84672 -0.30766,-0.9906 0.54999,-0.46288 0.4062,0.24994 0.73854,0.48181 0.73854,0.51528 0,0.0334 -0.61511,1.03817 -1.36691,2.23268 -1.32306,2.10217 -1.77682,2.56539 -1.77682,1.81385 z m 135.511954,-4.07492 c -0.40086,-0.31589 -2.19232,-2.57049 -2.63337,-3.31414 -0.18386,-0.31002 0.0372,-0.5073 0.36939,-0.32955 0.2501,0.13385 0.57241,-0.0397 2.12417,-1.1435 2.2904,-1.62927 2.64018,-1.94814 2.54331,-2.31857 -0.18635,-0.71262 0.43765,-0.17036 1.50061,1.304 1.56528,2.17111 1.69285,3.08949 0.51711,3.72243 -0.5303,0.28547 -0.58693,0.28796 -1.23678,0.0543 -0.67848,-0.24399 -0.68061,-0.24371 -0.56495,0.0751 0.0639,0.17599 0.11294,0.58134 0.10904,0.90077 -0.0155,1.27918 -1.64273,1.90489 -2.72853,1.04921 z m 1.12412,-1.25166 c 0.74498,-0.45423 0.83637,-1.34025 0.21714,-2.10498 l -0.2772,-0.34233 -0.82235,0.54585 c -0.45228,0.30021 -0.94338,0.67957 -1.0913,0.84303 -0.26126,0.28868 -0.25382,0.31233 0.25931,0.82547 0.6035,0.60348 1.015,0.6594 1.7144,0.23296 z m 2.62352,-2.35808 c 0.33774,-0.30565 0.33787,-1.11298 0,-1.52674 l -0.26198,-0.32107 -0.93114,0.64131 c -0.51213,0.35273 -0.93316,0.71378 -0.93563,0.80235 -0.005,0.1925 0.57732,0.7443 0.89371,0.84633 0.27924,0.09 0.88726,-0.12769 1.23477,-0.44218 z m -134.065424,0.61199 c -0.0574,-0.0574 -0.10866,-0.27834 -0.11396,-0.49104 -0.008,-0.30896 -0.39446,-0.70286 -1.92312,-1.9586 -1.57718,-1.29559 -2.00079,-1.57187 -2.41012,-1.57187 -0.27313,0 -0.51696,-0.0674 -0.54185,-0.14969 -0.0249,-0.0823 0.2752,-0.5109 0.66683,-0.95236 l 0.71206,-0.80265 1.94006,0.17343 c 1.06703,0.0954 2.14082,0.21272 2.38621,0.26074 0.40291,0.0788 0.42612,0.0632 0.23951,-0.1617 -0.11367,-0.13696 -0.64832,-0.60044 -1.1881,-1.02996 -0.68443,-0.54462 -1.11554,-0.78094 -1.42463,-0.78094 -0.61081,0 -0.61575,-0.20031 -0.0221,-0.8947 0.5304,-0.62035 0.71077,-0.62721 0.73633,-0.028 0.0113,0.26631 0.58383,0.83167 2.29064,2.26216 2.04949,1.71769 2.25778,1.93546 2.09721,2.19257 -0.13172,0.21093 -0.29588,0.26667 -0.62876,0.21352 -1.15329,-0.18414 -5.17142,-0.54403 -5.58978,-0.50067 -0.45393,0.0471 -0.41234,0.0949 1.31044,1.5073 1.61028,1.32018 1.82326,1.44991 2.24266,1.36603 0.25487,-0.051 0.46053,-0.0337 0.45703,0.0383 -0.0113,0.23344 -1.12904,1.41575 -1.23663,1.30815 z m 123.522294,-5.22257 c -0.93209,-1.03068 -1.6947,-1.95679 -1.6947,-2.05801 0,-0.10123 0.17979,-0.18406 0.39952,-0.18406 0.29997,0 0.88748,-0.44111 2.35782,-1.77028 1.67514,-1.51431 1.94572,-1.82041 1.8713,-2.11692 -0.18863,-0.75152 0.24827,-0.43932 1.78482,1.27541 0.88144,0.98364 1.66578,1.78843 1.743,1.78843 0.0772,0 -0.14228,0.26367 -0.48776,0.58593 -0.34548,0.32226 -0.68502,0.55077 -0.75454,0.50781 -0.0695,-0.043 -0.0816,-0.40404 -0.0268,-0.80241 0.0952,-0.69232 0.0743,-0.7508 -0.4747,-1.3249 l -0.57432,-0.60062 -0.88602,0.818 -0.88602,0.81802 0.3581,0.38117 c 0.2515,0.26772 0.4568,0.3564 0.68972,0.29794 0.59524,-0.14939 0.54762,0.23194 -0.11303,0.90509 -0.53876,0.54895 -0.6698,0.62029 -0.77947,0.4243 -0.0725,-0.12958 -0.0925,-0.39222 -0.0445,-0.58365 0.0559,-0.22267 -0.0132,-0.47228 -0.19183,-0.69285 l -0.27919,-0.34478 -0.73029,0.61217 c -0.40166,0.33669 -0.85733,0.75296 -1.0126,0.92504 -0.27903,0.30927 -0.2757,0.32024 0.28862,0.9523 0.80113,0.89731 1.06127,1.02146 1.63658,0.78108 0.28899,-0.12075 0.55075,-0.14511 0.68272,-0.0635 0.17369,0.10734 0.12987,0.22071 -0.23243,0.60135 -0.84992,0.89295 -0.78932,0.9189 -2.64402,-1.13201 z M 36.917666,36.978168 c -0.011,-0.0617 -0.028,-0.28796 -0.0374,-0.5027 -0.0126,-0.2838 -0.51804,-0.91176 -1.8507,-2.29912 -1.01716,-1.05891 -1.91694,-1.87559 -2.02096,-1.83436 -0.10315,0.0409 -0.30206,0.27178 -0.44202,0.51312 -0.22839,0.3938 -0.23179,0.48252 -0.033,0.8656 0.15425,0.29731 0.1739,0.47439 0.0647,0.58355 -0.10917,0.10917 -0.34899,-0.0399 -0.79032,-0.49149 -0.47712,-0.48813 -0.57813,-0.66762 -0.40903,-0.72679 0.1235,-0.0432 1.06979,-0.9114 2.10288,-1.92928 l 1.87833,-1.8507 0.55433,0.56768 c 0.30486,0.31223 0.55431,0.61536 0.55431,0.67364 0,0.1635 -0.71888,0.12531 -0.82336,-0.0437 -0.1551,-0.25098 -0.47777,-0.16923 -0.97135,0.24609 l -0.47038,0.39579 0.42147,0.40183 c 0.2318,0.22101 1.12338,1.12167 1.98127,2.00147 1.16797,1.1978 1.6283,1.57789 1.8325,1.51308 0.6802,-0.21588 0.55901,0.16518 -0.34144,1.07371 -0.90597,0.91409 -1.15546,1.08931 -1.19977,0.84261 z m 110.857184,-2.19836 c -0.0453,-0.11814 0.0972,-1.63943 0.3167,-3.38062 0.21953,-1.74119 0.37296,-3.192 0.34093,-3.22402 -0.032,-0.032 -0.46942,0.42826 -0.97201,1.02283 -0.50261,0.59457 -1.03891,1.21576 -1.19179,1.38044 -0.75187,0.80981 -0.93394,1.15028 -0.84717,1.58416 0.048,0.24024 0.0398,0.4368 -0.0184,0.4368 -0.16997,0 -1.42865,-1.07101 -1.42865,-1.21564 0,-0.0724 0.21894,-0.13623 0.48653,-0.14179 0.41358,-0.009 0.63243,-0.17792 1.45959,-1.12919 2.46292,-2.83246 2.41586,-2.76734 2.31901,-3.20822 -0.0501,-0.22793 -0.0365,-0.44769 0.03,-0.48836 0.0666,-0.0407 0.50665,0.2729 0.97795,0.69683 l 0.85692,0.77078 -0.29082,2.31262 c -0.15994,1.27194 -0.27084,2.33259 -0.24644,2.35698 0.0244,0.0244 0.52059,-0.51492 1.10266,-1.1985 0.76238,-0.89533 1.02344,-1.30516 0.93366,-1.46561 -0.0686,-0.1225 -0.07,-0.31122 -0.003,-0.41935 0.0915,-0.14807 0.27365,-0.0592 0.73758,0.35995 0.60328,0.54502 0.69568,0.91556 0.18816,0.75448 -0.29093,-0.0923 -0.74602,0.35521 -2.84821,2.80096 -1.33967,1.55863 -1.73026,1.84483 -1.90308,1.39447 z M 42.776186,31.356668 c 0,-0.3737 -0.20991,-0.76382 -0.86078,-1.59967 -1.8285,-2.34823 -2.36653,-2.9211 -2.74337,-2.9211 -0.59195,0 -0.42146,-0.31282 0.60235,-1.1052 1.00908,-0.78098 1.26645,-0.83691 1.11733,-0.24283 -0.12832,0.51128 3.08518,4.57708 3.57716,4.5259 0.56454,-0.0587 0.36301,0.30004 -0.6081,1.08258 -0.51502,0.415 -0.96974,0.75455 -1.01048,0.75455 -0.0408,0 -0.0741,-0.2224 -0.0741,-0.49423 z m 97.455714,-2.65733 c -0.45285,-0.32834 -1.44311,-1.01384 -2.20057,-1.52335 -1.02565,-0.68992 -1.33811,-0.97347 -1.22408,-1.11087 0.0842,-0.10147 0.23238,-0.15551 0.32928,-0.1201 0.29088,0.10629 0.44068,-0.069 1.95457,-2.28741 1.14077,-1.67165 1.42447,-2.18741 1.31753,-2.39522 -0.36711,-0.71348 0.1116,-0.53795 1.95802,0.71792 1.08161,0.73568 2.05845,1.3376 2.17074,1.3376 0.13099,0 0.0308,0.24144 -0.27963,0.67366 -0.62647,0.87235 -0.85327,0.86531 -0.91135,-0.0283 -0.0418,-0.64274 -0.10379,-0.74358 -0.73555,-1.19642 l -0.68991,-0.49451 -0.68769,1.03418 -0.68768,1.03418 0.37106,0.24313 c 0.2587,0.1695 0.52856,0.21359 0.89108,0.14557 0.286,-0.0537 0.52,-0.0409 0.52,0.0283 0,0.24559 -0.97548,1.55277 -1.12277,1.50455 -0.0823,-0.0269 -0.18338,-0.27162 -0.22454,-0.5437 -0.0425,-0.28077 -0.21522,-0.58749 -0.39947,-0.70932 -0.30699,-0.203 -0.35646,-0.17144 -0.91142,0.58143 -1.05373,1.42953 -1.05023,1.38394 -0.15302,1.98816 0.85571,0.57627 1.24977,0.64817 1.69727,0.30969 0.29777,-0.22522 0.81454,-0.30779 0.81454,-0.13014 0,0.0913 -0.90172,1.55367 -0.95123,1.54272 -0.012,-0.002 -0.39234,-0.27347 -0.84518,-0.6018 z m -92.572834,-0.8237 c -0.0436,-0.11374 -0.0149,-0.24661 0.0638,-0.29528 0.22863,-0.1413 0.17252,-0.7203 -0.31712,-3.27274 -0.35644,-1.85807 -0.52523,-2.44482 -0.74821,-2.60101 -0.28236,-0.19778 -0.28143,-0.21319 0.0486,-0.79705 0.20791,-0.36783 0.42235,-0.5732 0.56108,-0.53737 0.12351,0.0319 1.39564,0.91255 2.82696,1.95698 1.43133,1.04444 2.71128,1.88851 2.84433,1.87573 0.93786,-0.0901 0.8004,0.13969 -0.58418,0.9767 -1.18516,0.71646 -1.57824,0.79039 -1.22899,0.23114 0.15526,-0.2486 0.11276,-0.33738 -0.3192,-0.66685 -0.27406,-0.20903 -0.55049,-0.38007 -0.61429,-0.38007 -0.0638,0 -0.51214,0.24066 -0.99635,0.5348 -0.75884,0.46097 -0.88037,0.59665 -0.88037,0.9829 0,0.69391 0.24794,1.04585 0.66332,0.9416 0.70094,-0.17593 0.51171,0.2138 -0.35432,0.72968 -0.67583,0.40259 -0.90452,0.47862 -0.96508,0.32084 z m 2.0007,-3.96011 c 0.003,-0.0888 -1.82727,-1.34613 -1.95969,-1.34613 -0.0763,0 0.21885,1.63636 0.39893,2.2115 0.0411,0.13149 0.29178,0.0387 0.80887,-0.2994 0.41207,-0.26946 0.75042,-0.52415 0.75189,-0.56597 z m 81.376184,-0.86726 c -1.15987,-0.63113 -1.35283,-0.88325 -0.73066,-0.9546 0.37663,-0.0432 0.54909,-0.29053 1.65142,-2.3686 0.67698,-1.2762 1.23275,-2.39376 1.23504,-2.48346 0.005,-0.17868 -0.62981,-0.51057 -0.97592,-0.51057 -0.11964,0 -0.35746,0.13995 -0.52849,0.31099 -0.17104,0.17103 -0.41125,0.2725 -0.53381,0.22546 -0.18482,-0.0709 -0.15366,-0.21256 0.18268,-0.83053 0.23794,-0.43717 0.47399,-0.70482 0.57123,-0.6477 0.0911,0.0536 0.40213,0.24427 0.69107,0.42385 0.83759,0.52055 3.81142,2.01495 4.00971,2.01495 0.24725,0 0.23558,0.0499 -0.21133,0.90467 -0.30442,0.58218 -0.43564,0.71314 -0.5879,0.58678 -0.12346,-0.10247 -0.16649,-0.34455 -0.11627,-0.65406 0.0664,-0.40936 0.0103,-0.54594 -0.33563,-0.81812 -0.6409,-0.50414 -0.49806,-0.67411 -2.3028,2.74007 -0.77927,1.47422 -0.91475,1.83345 -0.77555,2.05636 0.45939,0.73562 0.10317,0.73691 -1.24279,0.005 z m -67.373554,-4.55272 c -2.70089,-2.94614 -3.73486,-4.01003 -3.89725,-4.01003 -0.10216,0 -0.26451,-0.0949 -0.3608,-0.21095 -0.14464,-0.17428 0.0356,-0.2922 1.03652,-0.6782 1.26218,-0.48674 1.70525,-0.48716 1.26545,-10e-4 -0.23813,0.26312 -0.21607,0.31482 0.42466,0.99562 0.37171,0.39495 1.05097,1.12228 1.50946,1.6163 l 0.83361,0.89821 0.005,-1.9713 c 0.005,-2.17677 -0.0457,-2.4449 -0.46075,-2.4449 -0.54271,0 -0.27988,-0.42215 0.40897,-0.65687 0.79915,-0.2723 1.08539,-0.18515 0.71957,0.21909 -0.22888,0.25289 -0.24568,0.61081 -0.16802,3.57797 0.0475,1.81334 0.0283,3.29698 -0.0426,3.29698 -0.0709,0 -0.22312,0.0362 -0.33831,0.0804 -0.12568,0.0482 -0.49956,-0.23612 -0.93498,-0.71108 z m 55.237034,-0.64544 c -0.32935,-0.11254 -1.39278,-0.45106 -2.3632,-0.75228 -1.46098,-0.45348 -1.73457,-0.58359 -1.59096,-0.75662 0.0954,-0.11493 0.26248,-0.20897 0.37133,-0.20897 0.18036,0 0.35033,-0.47973 1.52408,-4.30152 0.20493,-0.66726 0.21074,-0.83938 0.0392,-1.15996 -0.11081,-0.20703 -0.16645,-0.41144 -0.12365,-0.45424 0.0428,-0.0428 1.04776,0.22596 2.23328,0.59722 1.1855,0.37127 2.27036,0.67564 2.41079,0.67639 0.26405,10e-4 0.25473,0.0553 -0.25216,1.45843 -0.10887,0.30139 -0.52712,0.0366 -0.52712,-0.33374 0,-0.50125 -0.43032,-0.91053 -1.23196,-1.17175 l -0.708,-0.23071 -0.36516,1.15005 c -0.20086,0.63253 -0.32012,1.19581 -0.26507,1.25173 0.24596,0.24984 0.87732,0.28401 1.06518,0.0576 0.1069,-0.1288 0.32537,-0.23417 0.48551,-0.23417 0.23365,0 0.27017,0.0665 0.18484,0.33682 -0.48839,1.54718 -0.71471,1.78351 -0.9798,1.02309 -0.16408,-0.47065 -0.78038,-0.78327 -1.0214,-0.51811 -0.10322,0.11354 -0.75699,2.14185 -0.75699,2.34852 0,0.14314 1.40341,0.55221 1.8945,0.55221 0.36156,0 0.55951,-0.10024 0.73906,-0.37425 0.26031,-0.3973 0.90409,-0.53705 0.76143,-0.16529 -0.0441,0.11494 -0.16303,0.48545 -0.26427,0.82337 -0.20248,0.67581 -0.31274,0.70962 -1.25944,0.38613 z m -47.979354,-0.95538 c 0,-0.0923 0.0804,-0.29656 0.17878,-0.45401 0.14585,-0.23354 0.0887,-0.61222 -0.31019,-2.05636 -0.84894,-3.07336 -0.93562,-3.30262 -1.31384,-3.47495 -0.19315,-0.088 -0.35117,-0.21284 -0.35117,-0.27742 0,-0.20107 2.45323,-0.7754396 2.61978,-0.61335 0.0991,0.0965 0.0599,0.212 -0.11596,0.34194 -0.25072,0.18521 -0.22547,0.34492 0.4491,2.83997 0.62788,2.32237 0.75571,2.65411 1.0516,2.72909 0.63234,0.16024 0.33794,0.444 -0.74851,0.72143 -0.59693,0.15244 -1.16954,0.30736 -1.27246,0.34428 -0.10292,0.0369 -0.18713,-0.008 -0.18713,-0.10062 z m 39.309714,-1.41309 -0.73547,-0.17276 -0.49977,-1.49186 c -0.45006,-1.34348 -0.82981,-2.04916 -1.00494,-1.86752 -0.035,0.0363 -0.15274,0.59984 -0.26171,1.25236 -0.15545,0.93082 -0.15865,1.19958 -0.0148,1.24751 0.10081,0.0336 0.1833,0.19476 0.1833,0.35812 0,0.21295 -0.0742,0.27481 -0.26198,0.21857 -0.14409,-0.0432 -0.7167,-0.15565 -1.27247,-0.25001 -1.04455,-0.17735 -1.21854,-0.31835 -0.72121,-0.58451 0.35951,-0.1924 0.37199,-0.23304 0.82984,-2.70005 0.4031,-2.1720696 0.46575,-2.9940296 0.2282,-2.9940296 -0.0823,0 -0.1497,-0.12509 -0.1497,-0.27798 0,-0.26683 0.0765,-0.26376 1.9087,0.0766 2.3113,0.42939 2.80885,0.63712 3.12773,1.30583 0.49656,1.0412796 -0.11108,2.1391196 -1.27,2.2945696 l -0.60432,0.0811 0.28107,0.39319 c 0.15459,0.21627 0.49218,0.94897 0.7502,1.62824 0.25803,0.67927 0.53161,1.23504 0.60795,1.23504 0.0763,0 0.13883,0.10105 0.13883,0.22455 0,0.25895 -0.23672,0.26329 -1.25942,0.023 z m -0.54537,-4.2812 c 0.79399,-0.79399 0.41998,-2.1345796 -0.62053,-2.2241596 l -0.5243,-0.0452 -0.23239,1.1678996 c -0.25819,1.29739 -0.21984,1.3863 0.59965,1.39016 0.28477,10e-4 0.60721,-0.1184 0.77757,-0.28876 z m -32.476874,4.02967 c 0,-0.10319 0.10897,-0.26731 0.24217,-0.36471 0.22153,-0.16199 0.20784,-0.38668 -0.16062,-2.63628 -0.47966,-2.9285196 -0.49352,-2.9831496 -0.75647,-2.9831496 -0.22882,0 -0.4484,-0.27389 -0.32141,-0.40089 0.0449,-0.0449 0.53505,-0.16679 1.08931,-0.27094 l 1.00772,-0.18938 1.64118,1.7071596 c 0.90264,0.93895 1.66608,1.68227 1.69651,1.65183 0.0475,-0.0475 -0.25696,-1.9091296 -0.4728,-2.8915696 -0.0385,-0.17542 -0.20556,-0.35437 -0.37113,-0.39767 -0.37061,-0.0969 -0.39313,-0.36072 -0.0391,-0.45784 1.2434,-0.3411 1.67139,-0.21732 1.17323,0.3393 -0.18319,0.20467 -0.14539,0.6275 0.28208,3.1555196 0.48983,2.8968 0.48957,3.13426 -0.004,3.14144 -0.0866,10e-4 -1.16443,-1.07568 -2.39523,-2.39319 -1.27782,-1.36786 -2.25754,-2.3044896 -2.28378,-2.18336 -0.0253,0.11668 0.0925,0.94203 0.26174,1.83411 0.16923,0.89209 0.30781,1.77734 0.30794,1.96724 1.3e-4,0.19432 0.20144,0.52905 0.46047,0.76564 0.51752,0.47267 0.47201,0.51986 -0.66566,0.69047 -0.51063,0.0766 -0.69276,0.0546 -0.69276,-0.0837 z m 22.67978,-1.20953 c -0.57635,-0.0532 -1.53233,-0.10504 -2.12442,-0.11527 -1.13217,-0.0196 -1.48954,-0.21722 -1.01719,-0.56262 0.23125,-0.16909 0.30192,-0.60017 0.46757,-2.85202 0.18967,-2.5785396 0.18686,-2.6605296 -0.0999,-2.9276596 -0.16225,-0.15115 -0.29499,-0.30647 -0.29499,-0.34513 0,-0.0387 1.14459,-0.0529 2.54355,-0.0316 1.740244,0.0265 2.543994,0.0912 2.544934,0.20496 0,0.0914 -0.0415,0.47878 -0.0938,0.86078 -0.11181,0.81569 -0.38681,0.90555 -0.73148,0.23902 -0.26819,-0.51862 -0.73684,-0.74208 -1.556334,-0.74208 l -0.56708,0 -0.097,1.14753 c -0.0534,0.63114 -0.0715,1.1730296 -0.0403,1.2041896 0.22155,0.22156 0.87286,0.16224 1.13882,-0.1037196 0.481834,-0.48182 0.601294,-0.36334 0.601294,0.5963296 0,0.75813 -0.0411,0.89821 -0.26391,0.89821 -0.14513,0 -0.330404,-0.15157 -0.411684,-0.33683 -0.0992,-0.22606 -0.30071,-0.35173 -0.61287,-0.38214 -0.44929,-0.0438 -0.46837,-0.0215 -0.56139,0.65713 -0.053,0.38634 -0.0963,0.98833 -0.0963,1.33776 l 0,0.63532 0.93922,0.10058 c 1.160134,0.12424 1.410514,0.0336 1.678504,-0.60782 0.29432,-0.70441 0.67633,-0.67289 0.67368,0.0556 -0.002,0.30876 -0.0414,0.70826 -0.0896,0.88778 -0.095,0.35437 -0.0765,0.35263 -1.929344,0.18172 z m -10.8176,-0.18399 c -2.13089,-0.77282 -2.97615,-3.67615 -1.64348,-5.6451396 0.68823,-1.01686 2.41844,-1.48177 3.63023,-0.97545 0.30578,0.12776 0.55129,0.15824 0.60283,0.0748 0.0478,-0.0774 0.21771,-0.14069 0.37752,-0.14069 0.25535,0 0.29057,0.1089 0.29057,0.8982 0,0.75706 -0.0414,0.89822 -0.26307,0.89822 -0.1512,0 -0.43393,-0.28287 -0.66489,-0.66523 -0.32438,-0.53706 -0.50882,-0.6853 -0.9572,-0.76942 -0.39127,-0.0734 -0.67038,-0.0351 -0.94442,0.12975 -0.71893,0.43236 -0.95162,0.90747 -1.02811,2.09905 -0.11983,1.8674496 0.53646,3.1957396 1.75109,3.5440996 0.60551,0.17366 1.58501,-0.1262 1.90511,-0.58323 0.24927,-0.35586 0.65059,-0.41693 0.65059,-0.099 0,0.31809 -1.14397,1.23598 -1.67206,1.34159 -0.67855,0.13571 -1.48081,0.0933 -2.03471,-0.10759 z"
     id="path3065"
     inkscape:connector-curvature="0" />
</svg>
